<mxfile host="app.diagrams.net" agent="Mozilla/5.0 (Windows NT 10.0; Win64; x64) AppleWebKit/537.36 (KHTML, like Gecko) Chrome/131.0.0.0 Safari/537.36" version="24.9.0">
  <diagram name="Page-1" id="Cg-SF3FEoJLSieKLxIyb">
    <mxGraphModel dx="661" dy="926" grid="1" gridSize="10" guides="1" tooltips="1" connect="1" arrows="1" fold="1" page="1" pageScale="1" pageWidth="827" pageHeight="1169" math="0" shadow="0">
      <root>
        <mxCell id="0" />
        <mxCell id="1" parent="0" />
        <mxCell id="MCF449-vFfueuInCG7i1-66" style="edgeStyle=none;curved=1;rounded=0;orthogonalLoop=1;jettySize=auto;html=1;exitX=0.5;exitY=1;exitDx=0;exitDy=0;entryX=0.5;entryY=0;entryDx=0;entryDy=0;fontFamily=Helvetica;fontSize=12;fontColor=default;startSize=8;endSize=8;" edge="1" parent="1" source="Y0swL19ToAhsinC8apYH-1" target="Y0swL19ToAhsinC8apYH-2">
          <mxGeometry relative="1" as="geometry" />
        </mxCell>
        <mxCell id="Y0swL19ToAhsinC8apYH-1" value="&lt;font style=&quot;font-size: 14px;&quot;&gt;Start PISO Algorithm&lt;/font&gt;" style="rounded=1;whiteSpace=wrap;html=1;" parent="1" vertex="1">
          <mxGeometry x="240" y="20" width="160" height="40" as="geometry" />
        </mxCell>
        <mxCell id="MCF449-vFfueuInCG7i1-67" style="edgeStyle=none;curved=1;rounded=0;orthogonalLoop=1;jettySize=auto;html=1;exitX=0.5;exitY=1;exitDx=0;exitDy=0;entryX=0.5;entryY=1;entryDx=0;entryDy=0;fontFamily=Helvetica;fontSize=12;fontColor=default;startSize=8;endSize=8;" edge="1" parent="1" source="Y0swL19ToAhsinC8apYH-2" target="Y0swL19ToAhsinC8apYH-4">
          <mxGeometry relative="1" as="geometry" />
        </mxCell>
        <mxCell id="Y0swL19ToAhsinC8apYH-2" value="&lt;b&gt;&lt;font style=&quot;font-size: 14px;&quot;&gt;INITIALIZATION&lt;/font&gt;&lt;/b&gt;&lt;div&gt;Time t&lt;font&gt;&lt;sub&gt;0&lt;/sub&gt;&lt;/font&gt;&lt;/div&gt;&lt;div&gt;Field &lt;b&gt;U&lt;/b&gt;&lt;sup&gt;(0)&lt;/sup&gt;, p&lt;sup&gt;(0)&lt;/sup&gt;&lt;/div&gt;" style="rounded=0;whiteSpace=wrap;html=1;" parent="1" vertex="1">
          <mxGeometry x="260" y="80" width="120" height="60" as="geometry" />
        </mxCell>
        <mxCell id="MCF449-vFfueuInCG7i1-68" style="edgeStyle=none;curved=1;rounded=0;orthogonalLoop=1;jettySize=auto;html=1;exitX=0.5;exitY=0;exitDx=0;exitDy=0;fontFamily=Helvetica;fontSize=12;fontColor=default;startSize=8;endSize=8;" edge="1" parent="1" source="Y0swL19ToAhsinC8apYH-4">
          <mxGeometry relative="1" as="geometry">
            <mxPoint x="320.42857142857144" y="230" as="targetPoint" />
          </mxGeometry>
        </mxCell>
        <mxCell id="Y0swL19ToAhsinC8apYH-4" value="&lt;b&gt;&lt;font style=&quot;font-size: 14px;&quot;&gt;Time Loop &lt;i style=&quot;&quot;&gt;n&lt;/i&gt;&lt;/font&gt;&lt;/b&gt;&lt;br&gt;t&lt;span style=&quot;font-size: 10px;&quot;&gt;&lt;sup&gt;(n)&lt;/sup&gt;&lt;/span&gt;,&amp;nbsp;&lt;b&gt;U&lt;/b&gt;&lt;span style=&quot;font-size: 10px;&quot;&gt;&lt;sup style=&quot;&quot;&gt;(n)&lt;/sup&gt;&lt;/span&gt;, p&lt;sup&gt;(n)&lt;/sup&gt;" style="rounded=1;whiteSpace=wrap;html=1;direction=west;perimeter=rectanglePerimeter;" parent="1" vertex="1">
          <mxGeometry x="260" y="160" width="120" height="50" as="geometry" />
        </mxCell>
        <mxCell id="Y0swL19ToAhsinC8apYH-9" value="" style="shape=image;imageAspect=0;aspect=fixed;verticalLabelPosition=bottom;verticalAlign=top;image=data:image/png,/9j/4AAQSkZJRgABAQAAAQABAAD/2wBDAAEBAQEBAQEBAQEBAQEBAQEBAQEBAQEBAQEBAQEBAQEBAQEBAQEBAQEBAQEBAQEBAQEBAQEBAQEBAQEBAQEBAQH/2wBDAQEBAQEBAQEBAQEBAQEBAQEBAQEBAQEBAQEBAQEBAQEBAQEBAQEBAQEBAQEBAQEBAQEBAQEBAQEBAQEBAQEBAQH/wAARCACNAi4DASIAAhEBAxEB/8QAHgABAAICAwEBAQAAAAAAAAAAAAgJBwoFBgsDBAH/xABUEAAABgMAAQEFAQgMCQgLAAACAwQFBgcAAQgJEQoSExQVIRYXGCIxOXiZGiMkVlhZmLe409fZGSUyNjhhd5fWJigpN0R5tLY6QUNRV3F1gdXY8P/EABQBAQAAAAAAAAAAAAAAAAAAAAD/xAAUEQEAAAAAAAAAAAAAAAAAAAAA/9oADAMBAAIRAxEAPwDf4xjGAxjGAxjGAxjGAxjGAxjGAxjGAxjGAxjGAxjGAxjGAxjGAxjGAxjGAxjGAxjGAxjGAxjGAxjGAxjGAxjGAxjGAxjGAxjGAxjGAxjGAxjGAxjGAxjGAxjGAxjGAxjGAxjGAxjGAxjGAxjOrTmWtkBhMwnb1v3WeFRaQS12Foei9hbI40q3hfv3xaEEHolRm79/Yd6D+Xet616YFG3kb8rdsRLqCA+LTxrQyJXF5ELWbinmXSSbiVKKY4/rRUhJc1VoW/8ATPeUuL4mjyomRMsQDvei0axgXuKF+WSWHwibXP0hFbMg9Q1xEbmtMV32xHogytdiW5uHx6vg2HL0yQsL5KCIREyE8diqVzXfGNRsjUXtMgS/BI2aeaEw8zUC9kJj710Mf5KPJzbp5ElvHovpDdcOEkVBEatZUyFsR3JOWdmOM3sSGPvjpZ0GTAaivRIkQwGNo0hSdM3FFZuoYDGMYDGMYDGMYDGMYDGMYDGMYDGMYDGMYDGMYDGMYDGMYDGMhD5Hb9vvlji69ujubqsi91WXSkSHYoqzla97bUckhMaVJ19hmN6mPhG5Ce2GFFvcla0JJRwnY5m20kl7VLk+9BN7Gam/J/lj89PbdCwXpbm7xncaT2obFJdxxt//AAtG1lW/MMD45Rt7bXZieZMieGV1a3ppXolbe5o0ykGygHgANKoTnmyL/C19pe/imuOP5Ysb/wCMMDY9xlP/AIzOuPIj0rZnUMI7c5go3nVJzs6QODFm1NaSq1Dn6zpdF0NhO8YPeUS5yjicUNgEgg7w/pSVY15CmfMCUWgHJnQhPcBgMYzF90G3STWMrN53RVc43MBKh3BkV0OcsZqxULduyDTkGVucHaH2VJEumLboNCYztK00TsFAWeWFGNQaWGUMZpvMHn78lki8qyjxFo+ZuGSb+TzCSwsdhqbOvzVP7covUjrcS1UFeVCzJptCfH2hQ3JRbh2jxPJhJRxJSLY1wNrWNndGioTR8vb6TJ6h3AXse2yNvE6VUJq0NN7juNpdPjmxpLDFARummkD2u3HgyEpvE4mIG41SBMUYGbMZRBzZ2Z5WrG79s3jG36b8f0fZueInSFn3dPK5tPoZ6Vuld3eolxTAlqhsktas4XCaIwwh/wDqiWYgjzGiNLRBTOTqUr2aRe/gMYxgMYxgMZELrTsOHcrk1FGhxh+tK8OjbHIqXnijYcqakcqsya/TFb++rT3N5Up2qJ15X0WQL5fZtgO4jGyIRtJ74Urs+uTCwPGL3zt2X0ZcVD1N2RTsQpZv6fmP3q6Tt2srmcLmqZddhzQtfGOl5+7S2oqJk8Gnc/b2p6HWI08Sk8WmC1mWsZslZpIe0MjoFhuMYwGMYwGMYwGMYwGMYwGMYwGMYwGMYwGMYwGMYwGMYwGMYwGMYwGR467/ANE7p/8AR4ur+baS5IfI8deev4J3T/p6b3+DvdXpre/TW9/e2kvp679N+mv9fpv0/wDdvA1evYpfzYvRH6eFg/0feas3DM09fYpdB/wYnQ+9C9Rb7xsPWw+n5Na595o93fvevpv3t7Fr09Nb17v2/l1m4VgMYxgMYxgMYxgMYxgMYxgMYxgMYxgMYxgMYxgMYxgMYxgM+KhOnWJz0isglUlVEmp1KZQUA9OoTngEUcQeSaERZxJxYhFmlGBEAwAhAGHYd71v7YwNRzxdKFHiI8v/AFN4fJSec1cv9dnOXYnj2UrzTAtLQ4L0i02e1C0nHCEAJyVkjTwwJ0xqj4whUwgdBEbX2ERtRsw9S3sm5uouc2uFjOl8lbCGqOVpX6Q8CZys64J4+NsHqGsGk4fqEhxsKyJDGYmQsHradt06mOi0RSBCqOLpc9o945n1wcmQvtrm8J7X2F4z5ym6kp5+ak2z3lwhcWVNb3a8TCUXr4jglLao402EBp2A8bwogO40QSIElWFnZd4d61iXmMkvNvUEIRGp+fOba5YrIkjEdo41Ad31ZkOWsDnXpxxwAgdg8mVm8ypQsMNJNbniUXxXspajiniAgGQFnXJ1EqOdaLiNePr6TMLEVHPs9uewCyBpt2PeNkvi+c29OwkHeqhI3SCePr2fHGc4w0EZigGGKohAbGNESVI7GfBSnKWJlCQ8IhEKiDU5wQGGkjEUeWIowIDiRlnFC2AQtBMKMAaDfoIsYR60LQfgZX9ikqITlHXppf24Ktc3iXsrkjdUQV7WrOb3JEJUhOPI0rbl6dQiXJtmfGSKyDkygBZxQwB5bIQ8BePjnLxqUg6c+cvtkva67eLHldpriZrL3GaPA5RLk7M3rtFObiEsSdsRNEdY2pvQkEl/tDdpc4HOD0udHVdN7A84mr//AE2xz/29W9/QYm2ejtnnrd+VhJPFh7ULRvknvNmdW7i+/LTa3lPdoG9esiEKcp7Q6+hbDZZg5o0yoLW8Qh3cl9giaxF7VOlfmJ17MWvUoXghv3qnPq/lxmrn78Dt0hQ7dU/0ob6GzFluQEiBGMwE+lYnQmWmP+mI5D8tsJ4VJS8ZQixBEEW9CD6hWzzZ+fO8oH6IHjv/APH9KZdLlHnjCd1HUvY3kR8lEWZX1s5w6AL5y575VkUialjCtuCveY2GfFzW8WRpXlFLN1xPLCsVxb6zdlZadU+MEXUO5qNGFcUmKvDwIS3t22jomfKIAdyt21bhidrbXTcwonnN+suAnacihm6b08oQOiNMc6IdA9xyRgJ95GaMBYxiFvetYb/wnzd/AI8n38jSVf8A5/MyXs5+R1NPlBPMsJ4le6tC1tu0jhe1oXtF58Y9CKHt4AoZ6/qCXx0lrKO+GBtNLfFCs8rQzVRSYYgkhw39b80H/wANPGD/AL8erP8A9esDtMH8izfOJnFIYDijyKxMUrkTNHQyiccmyaOQyOieXBO36e5XIDno8lkjrZtRpY8uxpJpbe3kqFQyxBK3rdiuV1Qd48tRkzihdk1346klejkTMCcKoPcvSzhM00SE4JwyFRFED9RDYxrpES1bVGMyN3cm9sUuAU5K5ckTDMUF2K4Gsx03K3GS+1P+NqtXFScoYKr8eXQFtRhvM2ISZslFqLburySuiYIt7LLVOTBAGZAqMKCE0ZCJOA0Yi9ADrlfaunRziniXdbIjqw1rmFUdOc12NCHlOPZaplljFOtp2p1SGB2EwtSj24nDKGUMBgd79Qj1rW85Tu6vnCmfaAfEj2xIf3BT1p1Zd3CcnmB4NgZorZ7vGbQnFJx56XjCElIutaTTRxjkSKEaPa50ZFybQCh7K2f9/aYIQ8dHcic48IV8L6jcPbHalJ1pDY6i0FQ7lRSJ6f57ZtinIg++cTD6xYGZI9zN+2SNCxIliIxcIsKsr3g2IWF1LfWNmeyQbAU8NLc6lAFrehALcEZKsAN6F6C1sITta3rf263r039uctn50iUhCkSokoNFJkaclKnL1+QshOWEkoGv9QCwBDr/AFaz9GAxjGAxjGAxjGAxjGAxjGAxjGAxjGAxjGAxjGAxjGAxjGAxjGAyPHXf+id0/wDo8XV/NtJckPkNvInYzFUXAvatlyVQBOzQzla+3tT729aGqPT1hJgt7an0LYdDWuziYka0JWxB+MtWEFe9rY/XQa3nsUv5sXoj9PCwf6PvNWbhmao3scNWP0A8ST7L3pEpSI7t6yuCyIqceDYC3CNs0Tq6ohrEnrrXvpwymr5Qj2br3veUJDwe96F61ra5wGMZ0Z9s+tIvI2eHSWw4NHZdIfhfQIs+y1gaZG+fHNEQT9HY17gnc3P4x4BklfJJT/iGgEWD1GHetB3nGMYDGMYDGMYDGMYDGMYDGMYDGMYDGMYDGMYDGMYDGMYHxUpk6xOekVkEqkiok1MqSqSgHp1Kc8AijiDyTQiLOJOLEIs0owIgGAEIAw7Dvet4H5l5boDjaoWShuZazZKkqWOuklemiHMKh2XJU7rL39wk0gWnOL+4u72uOWOzmpETtwc1QW5vAhZWwKNla21vSZ+xgMYxgMYxgdVm0EhFlxd4g9jw2K2BCpCl2if4fNo80SuLviMQgjEkeI++o17S5pdiCEW061IeVsQQi2D11reQKYvD14qozKyZsx+O7jlvkaVXpejVA5+rY1EgWgGI0pW3MiiPnMTcoTmi+KkNQtqcaQwBRiYRQySdgsfxgfFMmTo05CRIQSlSJSSkyZMmKAQnTJyABKJIIJKCEskkksISyiiwhAWAIQADoOta19sYwGMYwGMYwOhWdVla3VCHytbdgcTsuv5KSSQ/Q6bsLbJI85hSqSVqIxS1uqdSl2qb16dM4Nq0BYFja4pUrggPTrExB5eMKy5M59qKZmWTDYBo+yhR0UNTWTOZTNbVsVohQ1JKwcIjs8tKRzKWRmEGLEyVWbDo88NkZNUo0Z5jWI1GmGVIzGAxjGAxjGAxjGAxjGAxjGAxjGAxjGAxjGAxjGAxjGAxjGAxjGAxjGAzV68tU0t7y7Thx8OfCKlbqt2uxI8V5NOuy0Koyq6JjMLeG+S652Yn3RZKKcXi7PSFqdpDBo84bPaDGhuiUnUIWtysRZCtoXNX3zEQa1PFJKVHme4NSja2pJOoml8knLiZWpQ1N0xXkvfkEVS3OfHUoTkEbvONP7u1tSyyWZs27Kkz6CUyHa9uZpq1zgNhznagqy5ZouqOdKbY9R2sKag7DAYa1iGA5WFpYURabS91VgKJ+pPzyp0oeZC7mFAUPD4vcHRV6qFZot5mzBvM/RFY9aUBUfSlNPAnysrogzHPIktPAWSvIQvCbQ1LO8pSjTwN8hjziBawSNr+MaNrfmxxbjDBGJR73nLAx5bu7MDVFnipUuMm3JqvJrupSpqcqTQ0yzNRtz3Ay5aoRJ1a1PGRyn6UF+OSJFSopq2rGnTnGhAWKu3jzk+Fp+VIFSPfNbcnWT1xY0GUOfViBM0stgKrclbgavIWyeVr7EE+TadO5sbE1on17WnnsKFyTrG+DJmCEII2ytsdfML23ccGtfifxpcmShXAum/IlZKuMO1wM5CZbIufOcYiNIsuGzokjWplKL74CiMbkAIM4KCjSmcEblLsSJA9IWJxTzpX8O8VU1znMol966HxGHRyHv0rlVuLUpC240zywMyp3cLxfbrddH2M53C0HoxzAFsOknOmaWRIiHol6IVJiDCgq38aGoh1tEvJR4r+klEzt+s+AOznKr62fHC1rKZZ6toF1f3acUPEpNZkMlUYsJzfKrOjLzDROu5KSJzjTKwMrkSoKb1W1mrf4+6bi90e0l9NcLWbJrqlXKUEt7tiMxOolHRvQbe3tDHVbxLEsBbwSVns5um6sEeIbkRZRq+TKlC7RGtuhy4QzBD2JvZQ4RbEy5V6w8gV6eplm+Q/rmf28oXgRCb0T5HYurcGwx6bEW96LRNZtnP1rNbU3ptCSI2toQlpjRk7AWTRl4rgiK9sB7GAaERYh3z5FxACZrYBCCa9zk4sQQi1rYgmE70aDetb0MvejA72Het4HoEunO1RvPPpfLjjHXU6kSqyaaeBFy5vPUrzqvmNiRxpsZ92Ekk5FkCXkMzekTGScUu3K1ZxYl6x8UOJx6szXX4H8bXJxXlN8n8RUMNwusT4ytjhB+5ojL51P1M9MdZucy50jVzyY75BzuVSXNiHWxvcfDEFj/dggTpy9MKNKmj5qhrO2lMpY4N3oflr874wb94GrF8dpGxh+0GjiuIIqM0n3tfi/FLCcUIwHr7wNGF7FrWhh9QunxjGAxjGAxjGAxjGAxjGAxjGAxjGAxjGAxjGAxjGAxjGAxjGAxjGAxjGAxjGAxjGAxjGAxjGAxjGAxjGAxjGAxjGAxjGAxjGAxjGAxjGAxjGAxjGAxjGAxjGAyGnkXrxotjgHtqt3xKkVt0y5R6AYxAWEgOJTrFVWSn6W5ACMIvhqml0CjdEKgGtHJFyNOqIEA4ksYZl5Hjrv/RO6f8A0eLq/m2kuBrjext2Y+znxKyaJPCxSqRUz1zb9fRYk8fvlN8ceYZVFsGo0evX9rIHKrKlC4ZXpr0UrTzf/a5tgZp5+xS/mxeiP08LB/o+81ZuGYFI3e/INkovIxwP5Ualrd2vIfLEatylbupyLKWguzFVU25GJKxM9m1AhkC9lZpBJazd5jJF8shprymfZhEHI5vhxKuQJSW9w5zssrpHyU1Q88b0TV9wc10ddqQuLdQdU3hFiqykTLSLkaImeVdQ1RyJWZYsqtGymclXDHCTTWIRes4fEHp2diHmVvqhtZirncYGM6Yp6uufamrijqijKKHVjU8NYIFBoy36FtO0RuNNxDY2pxnG7GoWrBkp9HuLksMOXujgcqcXBQoWqlB5msJ3F4Y+rKS8qkO8z/i4boBZVmCfFT1fnIlhzBPWhFmKZBDlleT5ZXk/dAfcm3qLCijgoWuiKZqWwiM2AVqeN62RhWaizbtj4wKZReQryKStoBH678K/R7Ja6lOBMaou3onlKDUXG3I7RZZji5WRFrPnctkbA2GDNUmlxatFL47EJwp0TemNVfGSyM8dXHM85WglszO/bAY7a636stt1v7p6xIq2q2iEDmrgys0WjNcVk3uQAPCWq6kg8eY4TCfretPLkSicJA4kNyh7G0t9h2MBjGMBjK4PL5MZbX/jI7YmcEk8ghcwjtDyxxj8qijy4R6RsbgDSYAFzQ9NKhI5NqwADBhApRqSTgaGLQR69d5Y/gMrB8ivly5L8XKqpSOqSrdQpbrFJU0Cd6+rNznbOudImYyAd2Jatb1hAUD58OQtapC2nA2e4pTTzkXxtI1eibPsqP8ANz49g+SLx92zTMaTBLvKDBIurmp8JN0jcmm7a7Srl0fbUDnoZQ23U6alD3Xqpfs0JbaVKQvWg7UtSUZYQy/ZS3jI/e/2P/JUnv8AW4/ZS3jI/e/2P/JUnv8AW5MTweeQgXkd8fVV21LVOy76rkSijumGNWVtG7tl010lQoXp4cmwwBRzeKesyhkn4EmyCym4+SK2IO9qGZWAuWfbltTSvqnaoBTi8pD0T0lMmzn2gFI04F2o5NZm3OzjJLWVtw96CvY6Gq9hnl4v6EzYC3Zur0ceKM04PaAo4OZ4s7GqfvOgI30tRzdYCKr5e7yhnjSqyIatgr48Ch76sjD24pGRwPPVbaiZC2OzOSsM2DR61qXgAX7pOhjlbmNabqaF0PVFdUvXSA1tg9XQ2PweMJVSga1wE1R1tTtxCx3cTdaUOz45bIE4vrys2Nc8vCpc6LzTliw80eSsBjGYS6Wupn5u50vvoaQEBVsdFUzZ1wOyMRgivnkFbQt6mClAEwIRD0auKZxJCdFgGaI04ASgDMEEOwx1HulVNk9RzCgKojJEjiNENiX8JW21qs8lgiFjSpgSP0BoaGEkFbDJrOHG3dosqyDxqS2muIQ5wtuXEuMislvDGa9uuPPnxxwtJ3KO9S1R2pUiEmeTOvozOZRyzN2yubKdYM5HIHV0q+auChIzziNrCAJ3pmeWY00lyYHFtdSwATrSvWQnh2rF7rzx183yScnGuVw9EREPWt8SRbsRjxJ7n6gOFc82cHk8QhiNVtR8uSRJEX75hbexxtpaUwxpG8je9Zr24L/qB4G/2wXR/wCS4ZgbX/G3dsC7daFsmramOp68hv3Jw2bxib37QUup+H2RGJ4lUuEedqyf5H+4pskOayUzseoZxGpyWt2Z1ujjCXEgW4/daeX+iOLrQ1WFy8+90nCcp1B6vhViQHkmyJzUlo2RYzS3ukPgNW2CzFDZpzM3o9cawIYuzbOfVslanplQIFapsUa1IPxn/m4fH7+hJyn/ADEQLIaeav8Azc8Yn/fTeN/+dR0wJZOnfTE18+RXocXKPeq5tldgKa/KqRr5LsVd0GwmpkUhW/dhKqbKL+6pgr8/UdGmTStYTpGateI8m+GEbun9K7qb9pJ4M6LnEnrHn6qu57usmFtji8y2A1byTO5rL421NDwijzo4PbCyKlS9rRt785N7MsUriiCEzmuSojjAHnlgFsC55xHskn55zyE/7BL0/pV1DgegVdl4I6Rpt3uZZWF22akZ08cUmVxSlYPtn3I4Bkbu0s4CmitmH3ntzUMgnYLlIyE2hGM7Q3uzgcERaA3W4B8u+YqhuvbQU1XUXO3egHJish5qGw5ZNOQLMh9dU/ZMcawO7/DLfmzqSFor2SsiRS26d2B+MIem015ZQrW8gLqjGbbTlLPht/zj8wf/AH03Wv8ANXzdgT5jvSKhB0/IOWLYjiWGyqQRp0tDnOWI1hx8WvasmA5oQz9tbtqywGsls028vrMmsCFDULy3SHySG2RGFx6F2lkbr6VuU1eck90qvjhl7chKUQ7T8e16031RET0pgki5xhzXNWuvb6gxy4kwlRuPz6hZ5YjE/NXxflnUPyOjAgVJUKtJcK0ure+tTY+NCotc1PLeidWxaT73wVje4pi1aJUV72gi+GoTHFHF+8EIvdHr11rfrrA5DGcLI5JHYexucnlr+yxaNsqYS14kMjdULIxtKMAghGrc3ZzPSoECYAhhCI9UoKKCIQdbHre9euCvwxuRP4VHOH+/Csv+KMCR+Mjh+GNyJ/Co5w/34Vl/xRmWoJZNdWk0HyCsp9CrFYUrga0qXuCSpilzQndE5CZUe2nuUfXuCIlwJTLUag1GYcFQWQrTHDLCWeUIYd1xjGAzFl4W7G6Bp2z7wmTdJ3aH1JBpLYkrQwtiPk0qMjURalL2/HMceSmFKnlckakStYBvSi2qUgIGWmAadssoeU8+KhOnWJz0isglUlVEmp1KZQUA9OoTngEUcQeSaERZxJxYhFmlGBEAwAhAGHYd71sNbNm9qz8VsiQgc4+n6yfW0wwwoDgzcyzJzQjNJF7hpYFaJWenEYUL8UwGjNiAL7Ba1v7M5X9lLeMj97/Y/wDJUnv9bkWfF0oUeIjy/wDUvh9lJ5zVy914c59iePZSvNGFpaHFekWmz2oWk44QgBOSskbeGBOmNUaOEKmUDoIja+wiNqNt1QoTpE56tWeSlSpSTVClSoNASnTpyQCMOPPOMEEsokksIjDTTBBAWAIhjFoOt70FQPEPm+4y8gd5j565+Yui/vgJ4O/WM4mWFRsjgUcaohHVrS1LnZye3lT8Egs15fmVmRACUaJU5uaVMHWveGMFwmV68Pp1F1PFr96SAg716ZPZY9z2mWlDAbHeNazVPZVLLUpJwfVMbeby/wA16RXngCnXHsFpQOLPpQ1EAQaT/itHyi8v0naEUgVsqZlAYVOrKsCk4b0K/tsbJoqSXZVzGue5zVDc8ppapnmpMzHM8gioHRXXiaEOlhRx9rlnlq+cIBMIwsXxkJmzuuuSbiqClLNri56FkfRYZaDnd4uSNxRjj9yOUJZipO+RpoBG5xLJPAJrqJmjk7fBLtjVWzNzbkbqjRMRz8zO7MhmzgMYyuHiOYy2S9K+V1mkcnkD80QbuKAxyFNby8uDm3RCPKeBuL5GpYYwiWqDkzCzKJC9vb+e1tRaVCc+PLu7GECcHNcoPCx7MWXhbsboGnbPvCZN0ndofUkGktiStDC2I+TSoyNRFqUvb8cxx5KYUqeVyRqRK1gG9KLapSAgZaYBp2yyh5Tz4qE6dYnPSKyCVSVUSanUplBQD06hOeARRxB5JoRFnEnFiEWaUYEQDACEAYdh3vWw1s2b2rPxWyJCBzj6frJ9bTDDCgODNzLMnNCM0kXuGlgVolZ6cRhQvxTAaM2IAvsFrW/szlf2Ut4yP3v9j/yVJ7/W5FnxdKFHiI8v/Uvh9lJ5zVy914c59iePZSvNGFpaHFekWmz2oWk44QgBOSskbeGBOmNUaOEKmUDoIja+wiNqNt1QoTpE56tWeSlSpSTVClSoNASnTpyQCMOPPOMEEsokksIjDTTBBAWAIhjFoOt70FQPEPm+4y8gd5j565+Yui/vgJ4O/WM4mWFRsjgUcaohHVrS1LnZye3lT8Egs15fmVmRACUaJU5uaVMHWveGMFwmV68Pp1F1PFr96SAg716ZPZY9z2mWlDAbHeNazVPZVLLUpJwfVMbeby/zXpFeeAKdcewWlA4s+lDUQBBpPYVgMYxgRu6k6Tj3Mddt0oVx14sGfTuYMVV0jUEXOSkS25Lil4Vm4rAmBQu38i1EDTNztJZhK3T0Y4FX8dlk7kAwMkbXizOMTFKhRaNjnJbATNRsTSOXExQ1wURgiTCQECfCI6odik7qpYyXPakpqUuSdMvUIQEHK0yY8ZhBdPcdfB9M+cqymlw99fA/GDyNAUceazTR6SNfS3cyt/d3ia6ID7hSh1bud66Sw9nNN0cNpbp1LwliBqQbCGyjpi/23mGnpTdD5W9sWiwQxGrdpDHqajbPKpihYG1tcHd4kQmp8kkVQ7ZmVvbVChyUfVtHlBETolMeIe9BDPmRc7L67qnhTnec9QXgknCiqa3GwimSuv4oqmj6zoZE/tsZRu5zGiPIUjaErs7t5bouAIRbamP2tVaAkJUHFf3i7rOve6OYqo6wqiOz+K1zcjW9PcRZrQZmePzcDQzyt+ihTg7NDDIpW1JUz2awGvbGJM/LRKmBwa1igKNUoOQpsU1z0Dy75Lop3Bzq0MUinVa1JZVlcS9AGyRhJb4XMZUCIo0lmx6EPRDiuMe0UfTyfbC5uRiZoXIHsralCmMQGNDuuCq5v9qn8XDsiTOTU29dubctKCejXt/L02WolZIvX3TkypMpMIPKF6b90wowYN+m/Te8/Z+ylvGR+9/sf+SpPf63MK+z0WnOuRrb7C8FHRD8qcLA4pmz5ZPLkieN/BPsvlSwnhO+pFbUAW/hDAyL5XH5iYjTmqBN4bPXxskJZEHVgT7NVqWbC6WrOwLesd5Jj0ArCGySezJ7PCMwDZGoo0q3t5VhIL0I5UcUhRHbTo04RqVij4SVMWYecWWIIAeP7y2cs+SuSWjGObWa8iVdOtEXeJ2utGonyuGptDNFTsmjDcQreVAxK3V4CwPqxKjKJ9RIWhcpEYEJYNGRE6K9o64S5GfWeN9QVZ3DQbzJS3dRFkdr8nTiEilaBiWlN7m6RkT8rRBfGtMqPTAGvb9npw/MptjGHZwNbsl4crKaxmspFcdyMxzH0H1TMlN+3GyLRAOXQE2QNLUy1lSQjw7GXomiKhY4NVy/5Iz6W8TCPy+aJigLJe4mHaO3twX/AF+cC/7ILp/86QvA3uuXupmjqePyWRstJ9NUukjbm3toUfTFGyyjneRhcUG3Ap0iTXLQFqn9lIL9CFTmlBpOQrEFPvex7yEF6+aKg+drqSULY3M3kMDOZHYEprWsjo5xfacljd3SOHgWKnfdIvzYQals5v8Ao6BRJEyqNBVDHGQ/XTiE7doZwLZYz/m5H/8A6I1f+AT5Tr5JPzgvg1/S/wCh/wChncmBMiw+uZBFebIj1uzUbaYKwQb3KbwrewoTIYB0VW9PJjHJFKLBRVYvTqnNzfK6CjJmsjrhQWmkcirkl8Xw01ymCKPw2WTCjUkj8yjjBL4m9NkjisqZGqSRqQsqwhxZ36PviEh0ZnppcEozEy5sdG5UmXIFicwwhUlPKPJGIsYRb5Y8ghUQcmUklKEygowhQnPLAcQeQcDZZpJxRmhFmlGliEAwsYRAGAWwi1sO96ymXwzyNXBo12pwk4nC+V8fXadp07UyE5QetUtnL1kENV584s6hapMMNMBEodYK6vWpN73w0EehLMkICUQUUnJC5/GMYDI4djkDVcidUpi1ShCYo5wvEgtaj+B82jGdWMoLCqS/NEKkvzCcQtHEfMplBHxQB+MQcX7xYpH5HnrrW98n9Pa1re9755unWta1673vdbSXWta1r7d73v7Na1+XA1efYpfzY3RH6eFg/wBH3mr/APv/ALf/ADzcMzTy9il3r/Bj9Eh9de9ru+wN71669da3z9zXrW96/LrW9hFrW/yb3rfp+TebhuBEC0oV307zt9cKU6W5Ar+slH0z7mYjaXD10XBO2j4TO3kPP12xYn5CaOj8i+fkBTq5tn0+rYv9IZ1rexKvra1sUyJ3x/8Ae58pv8MjgD9Wn0V/exZP/OqzuVlQSETKcKGd/kRENishlZ0fijWc9yh9KjrQsdzGeNsyb90O7+5gRiRM7WR+3L3E9OkK/HNDgQq+9z5Tf4ZHAH6tPor+9ix97nym/wAMjgD9Wn0V/exZgLjwi3/INytXnWlk212dytYtzNj8/MVSNpENp8FBBbJI+xpqbWeuXmJTNNYTUoKZiJM2Si+i50bYje5pJWCGwCNvrbW0Y7n4zuzJ30Kf1dzXfrgwO3UvBV9uVFW7JYuyCjLFaMQdkx8hpO8EUZ0aoTRVVZ0JKPMkcZQqTW1qmMfkgmQtLHFbKmKDJX3ufKb/AAyOAP1afRX97Fj73PlN/hkcAfq0+iv72LOVr3uuHWZ5AehuBYvB5IqkPMtKVTa1nWjtc2bibZIbfUnK4pWemwGxOoH1VDvlJiS4miAkUIjFiTSYoaMpQtnVgdfiaaVI4rGUc6eY/I5slj7MmmMhicZcYXFX2VENyYqQvMZhzxLJ67xOPujuFYuZoy6TqaOLE3HpmtdLJGpSmvCzFHQkGvifw1uZue75ZeeJknkSRxcpo90603YncY6S3uadVHCou8y2HI0BytwVNjjp8C4KT04GsaItGIC804nO+MDWx8tHP3kMj/jZ7LerD8icJsSEttISdVJoOi4khUJVydqL2l+O1J5YiuF4VsBij1D6OJDWuMJ938VOP3vssQ/Bm8n38aNX/wCr7gH9umZm8j9CTzqLhTqTnurws4rCtqpJFD4iCQOO2lmMenAJAkpbi56Tqvkk5mydg2o2nMAAQg7HoIPeEGbGB0SsmOeRqAxZhs6eIbPnzW1lpZTP22HJa/RSp0AYZsx1TwxE8P6SPANKEUDbemeFxIBliMAbrRnwwd7xjA1Fj/8AoXvaCS1Ov+T3Cfm018JR/wBmi1bdrMrp+KZv/s6H7sJdKtD2IYkiZTq9FQta2211r5e9iif+cv1nbfUqv92Vbz992PI3MnvftiB3krZIW/fXlxN/r7xJ/wBSsuKR/nqPrNhCsai6IsZU2KTWOyDvmeG8rPjVrzyn8prucZlMV1WSZpnEPs2qLlZWEEjkNVz6JLxB0/NLQJ6jY1/1eLuEjiq1MF+bNlp336mQoCvbEIgTdpeo4XQlS1xStdIT2+EVdDWCExslYpGuczm1gbyEBbg9ORutKHh/djCjHSQPazY1729LF7svNOWrDzRhk3Iid3VZ0/dXKtrVnxtfTbzP0ZJkcfKr65nZhLkSGL7Qytjc5GlMSDQOo0QpJFkT1GC3xK1OS9hMdwuzckEuSJzSpd4wMf1MxTuL1XWkZtKZp7Hs2O1/DWKxbDSMqaNJJ5O2iONrfLpmmjqLe0bAnlEgTuD4SypN7TNRa4KEjfwiAZAHzWNbq7+JDyNJGYJolhXIF4ORuifX3/pbLCHR4fN79N63svTIgcNm6/JsrQ9b0LW963Z9nTLHgMZtavJ5V00RbcodZMMlEBljdoQQbXxmYsa6OvyLQxAMCHaprcVRGhCLMCH4nrsAta2HYYe4xXNrpx7yg5s3w/o7jzVRS5p+CMJpP01XV8WUIfhGB3sJhfyphXuDDvYRh9Ba36b1mpx7bPWEykXHXIdqszOscIfWd/yuPzRySEGKC2E+x4OVqMLXPZWhbRNqxbDlzVpeoCBJp1XNLcI4KxyQkqNgDw7u8shnJaDjG2TQF3n49X8/kWephj+GN+g0ARpTedLTaEpw/nBRG1ufVteSRlXmFhT/AFYEmj4BaXxtzTJbFLep+r7+rSZU3dMEjVmVbYLKfH5nBpe2EOzA/tR4yzfgK0h+t+4emVEp17cvTDIcGpzSo3RsVJHFGlUlBETxPTGOz3xhePWSxZzTOzQfxjza17VJTNGAId41UkTjMjajha+wK5jkTQ6sjkT+Uhwb1RG972XveRL8xboglNg+JGg2BWnc7YnXlh5bt5ihSU0Bz+oq7mcUstm5p5ptBvajcahEcbUIHx09zSZCqfmgs0fqp1rOs1V4NUHKiF3iPCHkT725Cp55d3F5BQ7DL6guaqYkpd1A1Dlqumy+KisB/h415ppqhcsDI3NwXrxaclytSs0I0c0uVvG1THMdmSLoF5nt4dQdRyyO6hzx0x1LYALJs9thAlQHE6A1+jbWaLwCqYGe6B24KY1W0LjJDmfojb6odxI0gyQsKzzovZk2Fw549oC8h1C2wUOJWPusOmYW3MjsWNGe8v0a6Tq6THp2kBuv3aW4xBtcZg0KSBGJXKNIzHdEeeiGScZ6LuVQ9r+Gvj3tq3of0w87tXnnrev9odxDrDlqeCqW7kAWtKJC2kuzrtqf4zKgI28X0ghVJ4u6vCePbNjiJ1SMZ5yAYWtGmlEFGHnmFkkkljNOONGEsooosOxmGGGD3oACwA1sQxi3oIQ62IW9a1veUoeEJelm0D8iV7Ro8p2q7o/yydl2zS8vRD0ey2BWaD729RoZvHFwPUlzjr5JaslG2lxT7EQqTp9DALfpvecu6+Iqb2q1jhHU3lB8hfRVNqSQoH6m9zKnqLjFgMItbLWRezpPQFQV3ZsujbulGeke21POWP6umN2QvOPI1sodtNdV1BKigcQq+r4iwQKu4DH2uKQuGRZtTM8ejUcZUpaJraGhtSALTpUaNMUAssAA+ot6EYYIZoxjEFa/nOWNiHxAeRM92CASUfLlkoytGCCAOnNxbQt7KLWxfZsYHlUgGUH/AChmBAAP4wtZOPlhrd2PmLnFlfwmgfWih6ga3sJ/r8YLu319HkjkE73t7F8XSwk7Rnrve/f1v13vf25XX5b4+Pqhp558ZccL06uHX1xwWY32SmUBCdCOMOcJ3E7au2YOoitHmoCppImSvaOi/wA2n0ie5FZgkuzDUza6FBuL1rQdaCHWtB1rWta1rWta1rXprWta+zWta+zWtfZrWBiS+nCEtVPT9xsesnq5oOkYTTpJV0crNRcb5Nm/ShPrbK2VgkbndRMlJx2yTQtIG5VrYSRKBgCWnGYCm777Hjm/iXuj/wBTq/8A9l+X24wKEvvseOb+Je6P/U6v/wDZflmvGchpWSVi9LqK5lmvKcUKmrilca8nfNS7lt3dX4DMwmKZaRAl0fjondvXoDm5qKlRSQ8Cw9lUte1GxM+yi5cYwOpT5qlz7CZWywGXJIBNnVgdEEUm66Mp5mjib+qSGktkgUxJU5syWRlNSsZSwbMpdW8hw0V8saqKLMELVd34M3k+/jRq/wD1fcA/t0yz7GBWD+DN5Pv40av/ANX3AP7dMn9VbBYMXr6LsFq2EgtawmxANPKLDbIUkrlDKV+1ag0twTwlA9SFHH9BRmJko0ad5XFDMTjVBGX8f4BWQMYGu17R7xxPbg5MhnbXN4T2vsLxnzlN1JTz81JtnvLhC4sra3y14mEovXxHBKW1RxpsItq2BQN3UwH7miCRAkqwB2XWztiJeVDjrjaG0Y4GNh/kYijgtvJIyORv1emOeauE2N3ajUpcUoy1zc6qpKvbuVIw+kbIcEsnuRhnrUA1AxKTS7wlKZOsTnpFZBKpIqJNTKkqkoB6dSnPAIo4g8k0IiziTixCLNKMCIBgBCAMOw73rdSvi78QNIeLN06fcKolb3ME9/288zCHNb23jb0FG1CasUu8YoyGkmPb2BQ1sL27vq93lSYDAqmYNxoD6y7VxVGvUhbG2trczNyBoaEKNraWpElbWxsb0xKNA3NyEgtKiQoUacBadKjSJiik6ZMQWAkgksBRQAgCEOtbLoSsINZ/nI8WvFULZSx1bwtSXTHkgsdgWKlcgAsnVoTM2AVhIn5zeFDgsUS5pudavscpasUGOp6+Qnugxe6pTnlbLWauPj7qlb3D5N/MB5DIjbEwrR+rLpKJcD0FPoVqOv7UVDOba9b2u9Ie8RqWNT/GJlAbJmLrBp0MO0yRzQyJiZn6KyNrEA4KoO9+WM2XdF+XbwlcgVJpQtfqXuKTeQW+FiLethgVO1Qvj7FGHR8MALe0jZP3ZJOoAmEeEGlT04M7eT8UThv4WynkQecOLav50mtrXIB4mFt9F3uqaTrj6ItdWyOlkzBujqf5WLQxtKjTDF4dAq1iCX9zRivK/i8ajaPetubkld5EetfFcvsCstdzZ5NT1qw9F5O6/QIzlSg1Ih3wHBFW0SUw4Y06Tao28gmqflihAJ+YMCEw73PiDDoQt6yubi/n7yGOXRvlJRRnyJwmMPTF2pBWyevajiSFP5U+k5vDHIDqklCNqUXChKhqdJFHGNxMUfRqnZOpUxo+RiXFqX09vRbJuQn5ZoWeVDePkIn8uCz6j/SfVcQt6tdtrjtasNhzLyFzDTS018TbTk/SnHU3qyXJykOzFAjG5OicdGaKXFA0HOc71L17X0mfHLojsCMdGRhcxfIskZZOZY3SCpifvqCQ/T6ZIGSxpic7EfTyljeJnPb0xezFZS0K0IkvwD5eYxga7XtHvHE9uDkyGdtc3hPa+wvGfOU3UlPPzUm2e8uELiytrfLXiYSi9fEcEpbVHGmwi2rYFA3dTAfuaIJECSrAHZdbO2Il5UOOuNobRjgY2H+RiKOC28kjI5G/V6Y55q4TY3dqNSlxSjLXNzqqkq9u5UjD6RshwSye5GGetQDUDEpNLvCUpk6xOekVkEqkiok1MqSqSgHp1Kc8AijiDyTQiLOJOLEIs0owIgGAEIAw7Dvet1K+LvxA0h4s3Tp9wqiVvcwT3/bzzMIc1vbeNvQUbUJqxS7xijIaSY9vYFDWwvbu+r3eVJgMCqZg3GgPrLtXFUa9SFsba2tzM3IGhoQo2tpakSVtbGxvTEo0Dc3ISC0qJChRpwFp0qNImKKTpkxBYCSCSwFFACAIQ6/bjGBASrqP7ajff3Rt42N1ayzjiaf1nCI7RPK6aDIm14qeeM6eLlyOUrJcWhLUriVqptmKvYtujic/7nSdO4JWlNBmApVPvGMCizx8lDQeZLz8IXAP+NVsq8a0iTHjHr31cYcORV7WzCKL3vY/lkTiyPzf7+taB8ynUA1/kfb3n2gi93WhfEl12qi21B8/uWHNXMtetKEXuur5JejJE11Osb2fehAFp0TxGTSh6TCLGA4H0kYyBhPCXvP2WrGD+V/LtUHUoyApaY73pNu4oth6+KFM3RPpSrn59snlyQSA0XqHRNqxh2syl2k83QSdzUiu4+SeU5SdEkdJWdzcDVP5AIzSUSt+aWzEWahugYN0rEyqpkEXj5rxY9cN8gRQ8EtHJoXMgOkdaT5GsdtNCItqGpdUreaqWHJk40hwRHsyxJD4++NOa/Hrx7Hm62e6DueoFSPOtaIPcPaYvqHxJmgcg6jvBWAk8uGUZXjoSolUnlL8SV93EqEhgMcA5SiR6KTS68dXEkQ8fPJlbc2xl6UzJ+ZgusutqznMswL7bt1ThcZILOst8MUHKlo1Mjkao8LYQvWr1bTGkTExGL1gGos8ebaU5tprn0mRDrKJCRSKbLErlYFhyd+kdgWvZDohJEnQONjWtPHaR2HOVLYlGJEyhk0kck7A2e40sJDa1EkIis54Gq57Q7VE85Rs7kDzp86MKlwsvhycMcB6Xj7TrZB9mcpWA8qGJwb3YwGhaMJY3CWP8R0oGSbtuR2oZJlBhZMKRjItNmVrwPyEWDypUtQvyaZ86ukIq3vy9pAh377dIKx+qhfORqqdC9bHtOdbdvx5XZj60KwmFnQ3nKYwqSJAJZsQA6xS26rgt5VbYtMWewpZRXNrQmT15OY6s1+53mKy9nWMT4gEPWvfJGoblx4CVJWwnpTtlqSBgOKLGGBvih8ZsC8VnLqfnWJWE/3C9LJfIpZLLWlTXple5GFWrEihzAnZvrUiAwR2DQxIyx1sZEDwY0DdCZBJ0Te0KJSvbyQs0zz5Pbg6xmO5RwFcxLOsUV+Bgu2sXCQEpzBt7TMTHGDSpnZ3JVrWykyyQshT4tZE5m9GLiIw/mFaEFvO2D0G8wN0tzDQnYdOSugelaxjlt1NMySQPcTkhKjRYVSQezW55ZXVuUInuNSNpP38yzSWOuTW+tKj1Ob3BOMQt7Du9RzGO2JVFY2BEHNM9ROc17C5hGHhGZo1G7R6TRxtemVySmh+wxOubVqZSSPX2CLNCL/15UX3q6oJ15W/C9TUYVp3edQOwerump6yoTQK10KpyPc2TKsUUzk6QjYz2ZjlNjTplhUZcVwCEzw/6XokA1BjY4aTcNVnhVlXNcVJqvkvym+RGhKJRmKAsVNmSOgLcYIG2qlBqkyP1k+2zRUplEIYCTjRGo29K6rtkHmqlIzz1Cs4zc6uQ/HzRXHLvPp9Fna07hvq2woCbZ6a6Ln662L7sNvaDDDGWPOcvXJW1sjsNYxGf4ogkCj0QhaERRB5TB80QUeEJy5RZ4405iny2efqQN5YgxhZcfA8fRiALQ0wpTF+O2kqae5sO9h0o+bcm4asPp74BjLCPfrrQQ3O2VY0Jp+vJxa1kyJtiNfVxFH6bzWUO54EzYwRiMtil4enVacPetBJRt6Q84Qdephmw6LKCMwYA7re8Q9LziD882T0HbsYcIVdHffRdsduz+DvP473W7PcK5vTU7VrqYYECkhxgFHxyumh9aVICzGWWCkqAYNnFnHHBavjGMBnDyFibZQwPkZeSNKmeRM7mxOqbfprShtd0R7euI3veha1o5KoNL36hFr8b7db19mcxjA0m/ZblT5wZ1d5K/Dneu/oNr15ZyW6awG4i2gBZkUbkKWGSCUx5Kq+DtUjf4Pqn7BjwEYTli6MvrotUp0xTCq9zdkyoDyT+JqL9qzKqupaPtB15O8g/OBwF1C9Tw9pTupo0aYas7dbW7FzDE6awaydtODqgUNq4wahqRvr6mLJd42+yiISay2kS7nJqKuieiVFcK70JiTOTayyoAyIFYLJsUlAW+LIMVLSSJKRHVasI1CBM9FaXJizfgGiM+HowYZSytvya+Q+P+PmoYM4tENMt/o/oezoxQPJ1Co3L6Srtm6pw4JGljROToElSNjhbAc4JHCWv3y49EFHtrKlEF3f2rQ7JM1s/LbVo2LyyeE7su5lQkXG9Fz++ILZM0cQ7DDKZuKyIQWGhZbPXQ4H06JxqbWi2QqO6mTwekY2d6j7QldXBvNc2wZ4Wrw3mrqf7hC5DZfblhOXSK1oE5HroXDq3Yua4nLTifmgxSL00qhiiQyKp0Lj7jYoNsCwH+4Hli+dPRWdFHdW3HsOu77Pu63h3FZvmt7wh8ycucVHU3WlOwqHSJujcXsoDEXQEenSt5YkyCWpj449j3FLThTeochJR7SbMGYgM0Me96u+8ifbZkUpyU8/8ZvDVdve3QMVdIBzrWFaPzbIXiFukyRiYt9A2ataD1ySs6eqRM5DmrvPJkY0R5wXtTbF21coeHpIRrEUK5DX+JTwc2/QvOCBwn9u0lyBf0yA9xltUCfbJ6Hda8lcofJg2tycsbst0bNFAARVl1pY9p4ozR6MJTFatEm2MIB+BapegL5k3bnkj31c+hauqO7ZU0nCDTtVKxdBUBysuDWNYOrg9HtYz4QF2QCm0XEggwEyBkKTiVtZwlgtbI2ssok8QEqhtS+P/wAZXKHMTpBLVfi6FrGyehHaPu5T7HKWi9ixdxt6xnuUqI+r+E2TmfWvKF0KrSHvaxukDyoXymc7ZXSPVlNUhF7eAxjGAxjGAxjGAxjGAxjGAxjGBh1xoyCrbtj/AEIiLdY9Z7RD1tdvjtH1+kCKxK+OPXubRDrHaxp1CKUNsNkzirlkCcDC0skhbyvkSaOviCPTifsUqzFjGAxjGAxjGAxjGBhiCULX0Asy17mb0zk9WncyhhJmU4kq4Lq9FxSHp1SaD1vHBBISo4zXMMC4vC5kirMlSpT5DIZRMX0x5mUokMgc8z4xgMYxgMYxgMYxgMYxgMYxgdWm8HhllxGQwCxInHZ1Bpc1qmOUw+XMzfIYzI2ZaD4axqe2R1Tqm5zb1IPxT0ixOcQZr00IG/TWYEpPh3i/mmULZvzpyXzZQsxcmVTHHGUU3SNb1m/ODAsVt69WzrnWGRtlWK25UtaWxWpSqDjCj1DejONCIxOUIMpMYDGMYDGMYDGMYDGMYDGMYDGMYGPbXqmv7wruVVTaUbSyyCTNu02vzKqOWIxmBJUkL29xbHVsUonhhkDE7I0D7GpMxL22QRiQtrZIGBzbXltQrk/YomxHReLxyNHyCQSw+PMTSyGyiWKUS2USMxrQkIRvkjWNre0t6t9dREbWuypE1t6ZQuPPOJRJixhJB2DGAxjGAxjGAxjGAxjGBhe6KFr7oBFCmK0kzlIYZDZ5H7HNgAlwSIXNpJDlG3SFgsNpAn2ZLWCKSgptmjXFlysEdVSxhj7q+tjxpnRJys0YxgMYxgMYxgMYxgM492aWp+bF7K+Nje8szqkPQOjS7Ikzi2OSFUWIlSiXoFhZyVYkUFCEUemUFGEnFiEAwAg73rfIYwMfV9UlVVKhVtdVVlX1ZNi87Slc3V9DI5DEK1RoRo9Hq0kcbW1OpO0M84WjTixj0I40Whepg97yDjGBxbSxsjAQelYmdrZUypapcVKdpb0jcQocFo9GLF55KMkks5arHrQ1KowIjzx60I0we9eucpjGAxjGAxjGAxjGAxjGAxjGAxjGAxjGAxjGAxjGAxjGAxjGAxjGAxjGAxjGAxjGAxjGAxjGAxjGAxjGAxjGAxjGAxjGAxjGAxjGAxjGAxjGAxjGAxjGAxjGAxjGB//Z;imageBorder=default;strokeWidth=2;" parent="1" vertex="1">
          <mxGeometry x="450" y="10" width="238.16" height="60" as="geometry" />
        </mxCell>
        <mxCell id="MCF449-vFfueuInCG7i1-4" value="" style="group;rounded=0;arcSize=0;shadow=1;" vertex="1" connectable="0" parent="1">
          <mxGeometry x="216" y="230" width="209" height="110" as="geometry" />
        </mxCell>
        <mxCell id="MCF449-vFfueuInCG7i1-69" style="edgeStyle=none;curved=1;rounded=0;orthogonalLoop=1;jettySize=auto;html=1;exitX=0.5;exitY=1;exitDx=0;exitDy=0;fontFamily=Helvetica;fontSize=12;fontColor=default;startSize=8;endSize=8;" edge="1" parent="MCF449-vFfueuInCG7i1-4" source="Y0swL19ToAhsinC8apYH-5">
          <mxGeometry relative="1" as="geometry">
            <mxPoint x="104.42857142857144" y="130" as="targetPoint" />
          </mxGeometry>
        </mxCell>
        <mxCell id="Y0swL19ToAhsinC8apYH-5" value="&lt;font style=&quot;font-size: 14px;&quot; face=&quot;Times New Roman&quot;&gt;&lt;b style=&quot;line-height: 100%;&quot;&gt;MOMENTUM PREDICTOR&lt;/b&gt;&lt;br&gt;Solve momentum equation for &lt;b style=&quot;line-height: 100%;&quot;&gt;U&lt;sup&gt;*&lt;/sup&gt;&lt;/b&gt;&lt;/font&gt;&lt;div&gt;&lt;br&gt;&lt;/div&gt;&lt;div&gt;&lt;br&gt;&lt;/div&gt;" style="rounded=1;whiteSpace=wrap;html=1;strokeWidth=1;arcSize=0;spacing=2;" parent="MCF449-vFfueuInCG7i1-4" vertex="1">
          <mxGeometry width="210" height="110" as="geometry" />
        </mxCell>
        <mxCell id="MCF449-vFfueuInCG7i1-3" value="" style="shape=image;imageAspect=0;aspect=fixed;verticalLabelPosition=bottom;verticalAlign=top;image=data:image/png,/9j/4AAQSkZJRgABAQAAAQABAAD/2wBDAAEBAQEBAQEBAQEBAQEBAQEBAQEBAQEBAQEBAQEBAQEBAQEBAQEBAQEBAQEBAQEBAQEBAQEBAQEBAQEBAQEBAQH/2wBDAQEBAQEBAQEBAQEBAQEBAQEBAQEBAQEBAQEBAQEBAQEBAQEBAQEBAQEBAQEBAQEBAQEBAQEBAQEBAQEBAQEBAQH/wAARCAAvAL4DASIAAhEBAxEB/8QAHQABAQACAwEBAQAAAAAAAAAAAAgHCQQGCgUBA//EADUQAAEEAwEAAQEFBAkFAAAAAAUDBAYHAQIIAAkTERIUFSEXGVmYChYYMTM6V3jYl5m31tf/xAAUAQEAAAAAAAAAAAAAAAAAAAAA/8QAFBEBAAAAAAAAAAAAAAAAAAAAAP/aAAwDAQACEQMRAD8A9/Hnnsf2Ba9Z1TiFZsqeRSC5siwI1VFf6Sg2wDKzWzJju71i0DiyL1ZJU5KzurAguOCDtHD9doOIvcI4aMHa6IZA8891x7L4qOlAGEP5EGaTGUipCdjcWcEWqR84EiSwNtKDAsTsrh89Fx5zJ422NEEEd2g1zIArd2sksUY6Lh2Pz0E7/Kr8Xye+6anyQcFaKJqbI7p79gc96qaLa7fc2S3T2sPG+quu+M6bJ51xvjfH3c6/e/T2dLx615V5jXjLbpPpnn3ntxNUjC0NQvG5q5qdaWox7YboeVjKc9kgDc6mE2MiNS+4vDrUbsUHYeZRy9bfUCgvPYXE9G0HIqwFXXFLjrebVGfYrlI9ZEDl4Wdw2RjGkiaxF6Sjh6IPDQ+QMGEofNABB4HWetmBVfRm8VQW+3XGX2j1m/Sy4Yu2z1DVw7a7LNF0nKWrpg6WYvm2VEd99MOGT5s4Zu0c7fUbOkFm62uiyW+mocnzzzwPPPfmc4xjOc5xjGMZznOc/ZjGMfrnOc5/TGMY/vz4P3z0O4+TH49triCc/wCnaPNatxSQv/V2PwRK3YasUNSbJDUTrFRjhIruMeSxQttqJRiyD7eQLlc/lqI7d7jKGLi8DzzzwPPYRuzpjnDmkaCM9G9A0jQAeUPnQyNFbstaCVUNkRJiho6ejwT6dngLUs+ZtVE3LpowVcOG6Cmiyyeie+u2Z2/er/F5/Ej4I/nC55/+ieC9/PT3SPW/KfTDuQsOcOm+e+gX0Sbj3krZUjdFcWs7jDQuq7RFOpC2gkkPLBW5NZg+SHrktGyT1Vk7TbbK7t1saUJ4HnprCWyanvTc8qWMOUGEMoKHQorZpHVu1dvpRY9ss5A+i1fN11/rbBR0Gg4llP5Zsi1RKHHtgVkkJNshIeZhpD/cZ17zAaw32EXrWxLReTx6GKKMpKxcJDpLMTAiPwgYcVT32Tj+09OyGNh4A6ObjmM7JSeMMoi5MuJIETfhRvnpsldsG656PqmuZI4bvoB0SMmQOAPd27ZqRi1x1xGFp26hX1m+Esmwlg1cEnk0Gbu0ck4wWrCTorky4qXAxsPpPwPeav8ApEI2Xyaqo/Z9dfmT8/8AGGnV/wAlToUOWUbfcmUR6IrkBXLl1trn6btnvTkQ7HIKJb640ZkI8IcLKJorZ3xu56+6JO8rURJrtj3Pl59QPosViLZxT/OMUTnFumQ56UiQh4zGIpu7ZbnN4qGfPpI5GoLpqPERuzbdwwbqrk2WKqcpp3flD3uZ6XroxECfcouTo2LT8ncDl5PXFJSaAp1ZB6aPuhzkqPYyMfWaO0msAIMJGAUfuKwLOQBESozdAi9DL1t9V1PUdDiegX74jK41Mx8Q/ZJGoY00MTe6pZZLZqpV9d1fH9l228imlhuXzFqBYZXbMmqCro4eIB42IMmR+kb45wd/2D82nyH2r03LWxu1KV4/5Rq53AY8/wAka2oDTpk7LL22pOs3uzdqobYReM17A8TWbum6D6xp5k1N8D4+CNR6KR+wPjM+OW5eaIBTO3aN0AukLS5dhJChuWsR4U+G15TFJAdnkSjcnHCy2urs1flgVw1BA5/YpFHV1G4g2b1XCctgm86kVlfC4Wra865+Uv5iJbZFG2MGr/oaw+WphU96udIr+zWXRas+cwEAzH2DtWUJyt2ZEEcOmezcdFX40eq2IIliItxhmi+DUe6/zmY7/Y3v/wCIn3t8vy/M2j3guw0nrVs7SxbvIWcJukEnCeM57FoRPOcaK6764znTffTOfs+3Om22uf02zjML9m/Hn0hBPlz54+YjkmCCOgXEZq0jQ3SvMik1i1b2JKYeQEyOPC7DpyWz98Drd/Jgg6Rs1ykTncuhLEhpCRQ8fINNpORfR2ubkQ6Q76HQSjH3KFqcsUPrb9NWhetjdDzKhFphJYrRlqRS4x9VVBAKEuO83L0tYE0gUbjEvltglYGAj9evJU+jGkwNuwqKYUJ27xRFu0IVG4zIJIRjjiGu3xGO7DGwwfnBIm6ApuHmZsGGsLiiOzUMMJDk0aqsuvUJAkZcDp4nLo6mkE0oikKkB0RVcQqSMkHBKPQlm9GhHLqPQCKraC3BYgSZMcgqvhsAg7TQWg+0GIqh4kLWfotEyJrckedkyz7K3ngwJcnR0Cox6DYTGL33IV5C1ePGSlN8vdJdBMmqTFVBFbQ4SoqqbFHRt0ru402ZsZA6GPX6Wi67Ju4QbrKaYY/eDUj/AKadxf8AbY+Qv/jH7M9yVJZlkvQbqA9R3Hz23FtXjckNrCJc6SVnJVnKyCjd8WUu+jbbINHI/RNVBtoAfBmaqThTZ60dL6IrJ4Y/ss9GfxLOtP8ApZwF/wAMPBVtdz4LZ8NCzqOjpqJDH03ijIfYlc2BUsybYYkXgtfU1XtpRmHzyOqbuWKyrNM/HBu5EcozLj9XQkgweuYX+Wqj+n+jeAL+p7j08KD3pKxsUyDFmzisWF2BGQ84jZywqofShJZtkA0tKCDpDBHbtd0xHPGp1cMYJhxBN+XY3RXcYkENhoWNSqx5XbZ8Ym81I2HOBkDDymR7uSLx6goVG1jDa/gzXYe1coCGmoKIB9FGA9qs/wBXpRR8SeaWJab7s5T+U3ou95HypbHanIfRlXUXCqLlXP8AIq2K2RyQvXgRw0sSuH9X2lYNeaYiVv2CQcWXLZfEy+qLjYVEEzm5tePjRUZDrdW9JcJ/LCrDeEOsudp5yt1fzlKq3vXbia6QW1eykESpsu1IgpNR82BNmgCzKgTdD9myZOuCYl4dhCa+xIEOirxXZx6AParE+X5L1d3Hyl3zblSGed0+NYDekfpmAS4vAjN2zeVdDRwbCJUXtlerpTYFfRqAweHMS+texEPYc0OG5DOzMgkmkBXjqQGSbPjoIJKAhiMyYOKkUbkQogCkEfOj2hcIdCF2iw8qHMCiCLhgTFE2DhwyID3rddo9aLrNnKKqKu+mwfV89En7s/44f4fvEn8qdEf+h+zNT3LnM3PDo6+oDnWiqNeyhuxaSV5T1R1/WbqRNRijlYa2OuIVHwixZuPWeO1WKL/dwm0UdOd0NU9l1c7BGHzB8Mr988QT+s4g0E5vqsyoPoDl4wXYDCLUR0DUay8hhDJy2MoORKgmbo4K1xINCrV4O1BS8g5cs3GzZLXHSeAnPAnbnFNSdbo8nctwrEjhrxS3o2Wo+rheKls+BqOwNyQyQ/msYRdCEYTLwp5um4N6s1148iOOrpItX6W2dvXvPnHuJOh6e+RTp+j61h+HHxn/ACHKBOubqN4eJthdS3RFyo4F0fTQgNjXfQk37SQ0gmZig7UQ13hJG0t4/hq5jWMqBdHMUSriiKmtDqWO0vHq/L9LyeHyGLVrAYPH6/I4gb18xrzles3YpgNCtgsjkqMmYzKWoyfXXWE2bcVgDyRNGPBUFGmPtflVjyPN19dXE6Plg+l+T7btqpOhpPtJxy6ejyjrjL1BZstoZDUOm5uiHRvcOrNNyxVCsMFI8ruEAplrCFH4WIvLp67gnNHN1+dESP6GwOjKbsq2SKC++U03jev4eYlH5drnXbXfdcluL0YNkUs/XcOXKSCGNllE9c6H6f4j6AvT4leTfjcmVbSWro/Zo6Azzue4z8jhu6BKIyG0tOkbojNbIAzpGVmbL6DnBV5HltjkTCg4DFZDOCUoJ5kQqLxiYBtjqQI2g3YnWIk6m2eR3q0TUF9V2Vc6JOg8szEqqj9CWhCWe6mijd04h4mva0mD5irn6T8RayDocm80HyLZhLzz497fa0a6hodxTK02n/yTue27rD/mMjj8JmcFru6n1k811o1OjoO9MJ4r8LV3Jsak7d1GMjyMermYx0Sqm1JCVttwu44epkflRiz3yJW/ECs7tUNsjHH4J0M+uPztpn8Et+Wvno/6rb6W/wCCdumn3voOFU9+Z4IOt4KUsvqrhuEJu2po3zXJbA6rtaQDGKjEYL1Jc53VypCRDph+NJKgHVonOgJzJ4eLdkHuXQan5unh472D7LK3j7ioMWLVd85as2rZyTXTdEnCDdFFcg6RaN2CLl8qnpqo7XSYs2jJNZfZRTRo1bttdsIoJaa8rwPPPPA8888DzzzwPPPPA8888DzzzwPPPPA8888DzzzwTl1XyvU3ZtMyOgLzSmJGqpllulMY5D55LK9UlYxvtsp+QHi8MKhjD2POHH0HL4Pl9oyfqtG2jxNdvqogpm6LR5CKR0NG2xI6YbhWCA9EpJjDyQSB8mhr93VwWNEFFXpJ7vj/ABXTlTdVTOMZ2z+mPff88DzzzwPPPPB//9k=;" vertex="1" parent="MCF449-vFfueuInCG7i1-4">
          <mxGeometry x="41.870000000000005" y="69" width="125.26" height="31" as="geometry" />
        </mxCell>
        <mxCell id="MCF449-vFfueuInCG7i1-9" value="" style="group" vertex="1" connectable="0" parent="1">
          <mxGeometry x="215" y="360" width="210" height="100" as="geometry" />
        </mxCell>
        <mxCell id="MCF449-vFfueuInCG7i1-7" value="&lt;font style=&quot;font-size: 14px;&quot; face=&quot;Times New Roman&quot;&gt;&lt;b&gt;INTERMEDIATE VELOCITY&lt;/b&gt;&lt;/font&gt;&lt;div&gt;&lt;font face=&quot;Times New Roman&quot;&gt;&lt;span style=&quot;font-size: 14px;&quot;&gt;Construct &lt;/span&gt;&lt;b style=&quot;&quot;&gt;&lt;span style=&quot;font-size: 14px;&quot;&gt;HbyA[U&lt;/span&gt;&lt;span style=&quot;font-size: 11.6667px;&quot;&gt;*&lt;/span&gt;&lt;span style=&quot;font-size: 14px;&quot;&gt;] &lt;/span&gt;&lt;/b&gt;&lt;span style=&quot;font-size: 14px;&quot;&gt;and flux&lt;/span&gt;&lt;/font&gt;&lt;/div&gt;&lt;div&gt;&lt;font face=&quot;Times New Roman&quot;&gt;&lt;span style=&quot;font-size: 14px;&quot;&gt;&lt;b&gt;&lt;br&gt;&lt;/b&gt;&lt;/span&gt;&lt;/font&gt;&lt;/div&gt;&lt;div&gt;&lt;font face=&quot;Times New Roman&quot;&gt;&lt;span style=&quot;font-size: 14px;&quot;&gt;&lt;b&gt;&lt;br&gt;&lt;/b&gt;&lt;/span&gt;&lt;/font&gt;&lt;/div&gt;" style="rounded=0;whiteSpace=wrap;html=1;arcSize=0;" vertex="1" parent="MCF449-vFfueuInCG7i1-9">
          <mxGeometry width="210" height="100" as="geometry" />
        </mxCell>
        <mxCell id="MCF449-vFfueuInCG7i1-8" value="" style="shape=image;imageAspect=0;aspect=fixed;verticalLabelPosition=bottom;verticalAlign=top;rounded=0;strokeColor=default;align=center;arcSize=0;fontFamily=Helvetica;fontSize=12;fontColor=default;fillColor=default;image=data:image/png,/9j/4AAQSkZJRgABAQAAAQABAAD/2wBDAAEBAQEBAQEBAQEBAQEBAQEBAQEBAQEBAQEBAQEBAQEBAQEBAQEBAQEBAQEBAQEBAQEBAQEBAQEBAQEBAQEBAQH/2wBDAQEBAQEBAQEBAQEBAQEBAQEBAQEBAQEBAQEBAQEBAQEBAQEBAQEBAQEBAQEBAQEBAQEBAQEBAQEBAQEBAQEBAQH/wAARCABAAGYDASIAAhEBAxEB/8QAHAABAAMAAgMAAAAAAAAAAAAAAAcICQQKAwUG/8QAMBAAAQQDAQABAgQFAwUAAAAABQMEBgcBAggACRUWERITFAoXGDh1GSS3V3iZttj/xAAUAQEAAAAAAAAAAAAAAAAAAAAA/8QAFBEBAAAAAAAAAAAAAAAAAAAAAP/aAAwDAQACEQMRAD8A7/HnnngeexN62aSuDfLN8PyQy2Lgex23rP7qXl0BI2Eb1rVVtEeL5ySirBGvBSguIOdI6RJEHwkqbEGJI1cO1fwObJYSST2y8DzzzwPPPPA8888DzzzwPPPPA8888GFPdc7dL/J78UU0D1D1FLIRzRPuznN3zmCcg9TT2FQhrZ/KpqvoG7xK4bT5wDKGkhmBVkFRdQt/I27FXZd0VVYMGjp0juOKItzAwcXaJv0WpRgzItkioomDJpN3zdNyimRCG2Y8yHf6Jq66vBRdgxJj3GFGj9m2dIqo6c/zwRJbt/0Pz8HYyG+bsqOkgBNyozGnLdsiG1sHIO0tdd1WrEnMjIVk7cpab6bqIN11FdNd9dttcY2xnMnNCY1+NbGWJBi9EPWKJNmVaO0HI12Ncoaum5Bs+RU3arsV2u+jlF2krugqhvqtopsntjbPWe+ef+lflT49e4NZ7YELmPW/bIt1D64dXmWiBmzyI+cTmIQBhD6oHqimzmGU1QMWkqxgMPjQ1oNj7xmasCSEzdnSuTyyQ+77M+SHjkvwCjwxwd1NWFn9BXyBpb4/6JA1+byUOCc3UTi9CkJn+m101yKRgVbk5PM9SOyyejJ2BbZ/XQx/uUQ2+tLq6qazgFa2OwUP3BH7imIqDVbrRQ5naLudnDEdlErabxtQGTwLJC8AIbIiKxVAnsy0RYbY1V3U300z8ZPfkS4FqWWFK9uDtnkmnrJj6YveUVpa3SNMV9YcSWMhx58cylMNlE2GngL1yGKjiSLcgyR2WYvWrxDKrVygspFl3VrEaYY/F9T9fjNAsDqrqOuq4hYhP8udBcThHIfSMajw/XOmieu2GYkY0b/m100xtlP835cfj+HsAv4p7+5j4HP++Qh/7/zL4O0sV605WBUqM6SN9Mc/B+dTajVINfhW5a6H0sWUfFlwLLQZabuRowZ9s8ONnIZrhqdVy4Kt1h6X53aW6OvKpvqfmLooQbkHPvRtEXqBjRkVHZEcpy3a/s4OBkB3ZPUICMk4VITbIWZMbLI6ixb1dB8/2VS1aoK5U0xmcHaCDpq5bOUUnDddBVJdBdPRZFZJTTOu6aqSmu2iie+uc676b65121znGcZxn2P3xxUlFr7+EngOoJQ4WFxaXcYcrKncjY/AjyztqPh0Fkr9lgbYcPm8Y03OKD1GTkz9v7SQNs+VPxIzHZgxDSMYGmGLnhpOr/5tQbU1aMecRMPNQoquhe52WySPyFDR0Ccg425VGv1lCzTbZ0xQeYZbroIuNsfhlHfXHkpG4olf1WxK3YMidbReZNX7gc0k4hYDIWKoowQAk2BkOvuqqPIMSwp8zcN9lFPy7o5zrvtrtrtmAOHONQHFdUNq9CSgjKHhARCcyh4/ZCFsLymMRIfFypdrK3gta1ZQ1N/TkHLbS2bBsclGGabWMxAlHoUNDxcXxfjl/s7qz/MW7/zXYvgu95554HoAvTmmuuiPtb7/AJH0BH/s/wCt/Sf5F9Y9T8v/ALv7g+kfv/un+mi5Kk++P2/0Rn9E+9fuD7Z/WL/bf0r7gPfUp/8APBQD/TT51/6jd/8A/li+U3/7I9CXx5juHugnEo6L5Itfs2xgdLXVaVE4OWv3z3zcdVyuXQ0MgAlhUXWl2dP2NW1hQ/8AQlm20SkMohjtLBZo1l8XbtHoyOSHFoerJGWnLqJchQAq+GzjoJiY3sGRBHazQrVfNANZiyuGeIEWuybgJKJY2LMKdqh+2XSMMLAnraei2ZQNWUv1ZZpfw/rANFoB8o1aAhzEKLqn5qfkAgwwINaosBwoK0OQEoBaDWDfRNBoLSElWqI9BBJNuigjhBLTXCOddQtN2XUFndL9vfHbWWkJPuOZue59NO3LynLhnlpE31o1XH14VyrXLEsrtqkZkCVizaQWsVBNU3WRTGuAJMho1UIBXWsF/KcvN2nbPw5yBxS9/Wpz3WHQnRNxXAboyl7Duz7GnsW54Mwzn1aWg64BSIsEaGppZJjZgffDtRbFIMWWevmDVNw7R3G88Gc16yiTzXf425bMa9NVRJJD2UEKka4kpaPG5LD/AN3zN1MozCyQjEiJmL7yFuwy12ONo+bOhxxTd2OHnjbVomVd1K+cv4w7T+Qysub7A5ykEOEdO8V3oIvqnwtiung2CWDoydgyMjr80bHMn7uPPTTuKRd+EMqNVhn74P8ASC+wxiYVkIPTvpWhT16i6sUiNmuammlP22Mt6ISxGIiZw2wYYQmeQJcaTjhl4PZvWDwJYJfbO+HiKzd4g0WTztjTfTaxTJJyizaIvHWHrtJsgk6eYQ0a4duU0tNF3WGye2+jfDhXGyuENN99Ecb/AKeu22NcZyGZJnp3u6zK3eQevfjmuKj77lMZVB7Tq9bi5Ud851FKDApZqpLn0sp2+7JtqzI/GH6mSYYVD6aZHJXq0ajj+tbqkVXg25/MlFR7l/nGhebomQdl4zQdOVrToMwQSSQImhtbw8PEWpokihtuikRLpiMEn+iO+yWrt0thPbOn4Z9OHngepD8cv9ndWf5i3f8AmuxfW0m4qUnImdEwqWJQWVPmOyAOXLR5nK0gL3Kie2r7eOkHTFkW11T13T/aOHaCe36n5874zpjGY35spbXnik4PT2JU9nCsRQN7PJaQFsgjo8SkUmNSoq/3EDlFmQ3RQkcdaoM2yyqaDfRJPCm+dc7ZCcvPPPA9Sbuqxu36qrqvJlwpzpA+qZ0yt+PtLTpma2oGpd8fpglGJiwNP4PYslztGY9KwM2XgRpZwbZGkV4oxk7JiBJFXTDCN2fPBlTHPi8pO82i9w/IdVNW9GdU2Ds3Kzs0ukdJQKtBTfVfETo2m279yPdNquq1g8dDxpR+PZGJ1LCk1tE6xGHZ6UFsoW+MjhO7Pj66r+QmAxOrqzA8HXzdsa6AoA0CsNVrIYgYOVqFB2BB0asTjRRb9o1kYgewakycrBIaCBWr9pqXVd6MGu3/AJ4HnnngeeeeB5554HnnngeeeeD/2Q==;" vertex="1" parent="MCF449-vFfueuInCG7i1-9">
          <mxGeometry x="77.61000000000001" y="57" width="55.78" height="35" as="geometry" />
        </mxCell>
        <mxCell id="MCF449-vFfueuInCG7i1-14" value="" style="group" vertex="1" connectable="0" parent="1">
          <mxGeometry x="215" y="484.5" width="210" height="100" as="geometry" />
        </mxCell>
        <mxCell id="MCF449-vFfueuInCG7i1-11" value="&lt;font style=&quot;font-size: 14px;&quot; face=&quot;Times New Roman&quot;&gt;&lt;b&gt;PRESSURE POISSON EQ&lt;/b&gt;&lt;/font&gt;&lt;div&gt;&lt;font face=&quot;Times New Roman&quot;&gt;&lt;span style=&quot;font-size: 14px;&quot;&gt;Solve pressure equation p*&lt;/span&gt;&lt;/font&gt;&lt;/div&gt;&lt;div&gt;&lt;font face=&quot;Times New Roman&quot;&gt;&lt;span style=&quot;font-size: 14px;&quot;&gt;&lt;b&gt;&lt;br&gt;&lt;/b&gt;&lt;/span&gt;&lt;/font&gt;&lt;/div&gt;&lt;div&gt;&lt;font face=&quot;Times New Roman&quot;&gt;&lt;span style=&quot;font-size: 14px;&quot;&gt;&lt;b&gt;&lt;br&gt;&lt;/b&gt;&lt;/span&gt;&lt;/font&gt;&lt;/div&gt;" style="rounded=0;whiteSpace=wrap;html=1;arcSize=0;" vertex="1" parent="MCF449-vFfueuInCG7i1-14">
          <mxGeometry width="210" height="100" as="geometry" />
        </mxCell>
        <mxCell id="MCF449-vFfueuInCG7i1-13" value="" style="shape=image;imageAspect=0;aspect=fixed;verticalLabelPosition=bottom;verticalAlign=top;rounded=0;strokeColor=default;align=center;arcSize=0;fontFamily=Helvetica;fontSize=12;fontColor=default;fillColor=default;image=data:image/png,/9j/4AAQSkZJRgABAQAAAQABAAD/2wBDAAEBAQEBAQEBAQEBAQEBAQEBAQEBAQEBAQEBAQEBAQEBAQEBAQEBAQEBAQEBAQEBAQEBAQEBAQEBAQEBAQEBAQH/2wBDAQEBAQEBAQEBAQEBAQEBAQEBAQEBAQEBAQEBAQEBAQEBAQEBAQEBAQEBAQEBAQEBAQEBAQEBAQEBAQEBAQEBAQH/wAARCAAyAToDASIAAhEBAxEB/8QAHQABAAIDAQEBAQAAAAAAAAAAAAgJBgcKBQIDBP/EACsQAAEEAwEBAAAGAgEFAAAAAAUDBAYHAQIIAAkKERITFBUWIRcxOUF4t//EABQBAQAAAAAAAAAAAAAAAAAAAAD/xAAUEQEAAAAAAAAAAAAAAAAAAAAA/9oADAMBAAIRAxEAPwDv48888DzzzwPPPPA8888DzzzwPPalTvml1rfQoBtZ8Ke3WvGZJMtqwYH2D+ZM4xEXEKayIwVCs1V3QZqOVsaD/ngtqyWdJSUa4ZJOUFFFU9teB5554HnnngeeeeB5554HnnngeeeeB5554HnnngeeeeB5554HnnngeeeeB5554Hnnnge5ZubNfq5dHZndnGdo/YCyqZtPmWeB5pVQMZxfw9JR9s8i2o2/sKltUSTL06KdPTId6k/hFntWCDoZHJa3YMv52zkhs3Q6mfUK/YyOH+VrC5g+yNWiCD83xcc2rDrsAAbKuCll8CXGbZC7Nbrs2uu7o4Qo+WuxVvQ8bnKLAe50kp0kthswzjAfnbfNH1PrZWsg4f7YW5LJnalpxOvYtF1OGuERWjtisq4k1jyB0T0qN9hgyglTxydTbbdZDCZYiCGRVqrqXkYpNa+zTXOuuuud9lM6666533xpjffOMYxnfbGmummNts/72xpppp+ec/p11x+WMQs59kQLpS0JT1fHyzCS1SHDEqT5nODHCbwNIowmXGk7wtgK7Syn/IY2FY0dBV8J2cJOW6kfosfLoyQUC2M5y4mr4HoM9X2RIS9o858dQE+Wi0p6VeWNLrEl8bIuBMqhHM9GDY47totEyzL8nwSUzWYT6oqXEyBisOMxVjaB2cxYswlcQDKe3ZzaA6MjVXNhXU9hVxZ9uaymcOnUrquFE4DElYk+lxh3AhaUeLGDbtMmFh6wcYXd5eZ1cv2y2f1vlNFCxGHUgyu1+z9T7E9cJszHzGv5vDVVcfow4fg+p+cHFhtmu+2PyVWRaGq3cOkUtv3NEsoKq6bafo20Czhq1bsWrZk0S0QatEEWrZBPH5aIt26eqSKWmM5znGiaemumuM5z+WMY/wB+oy+//YF4cz8FXgy5UlTmGX3irTNkmLBF643L1BS0aksXjMmmQtbOu6A+YzCUy2MVvA/5GzYimkbm08jmzlzVpPRC1K2ep6DpUFaBqeWXGmrqnhEWKzmIiSDc7P2C0/Wcsa1jzKDClXMlKS20TDbaP1nF2I5Y1OpCs1DRxoQfuUUdubb6LAfo9LPnX9QZFa/CldMn190rP5vNrEU7ACE5dVFG1GEKy6sq0DVWKpgo2KbVLEGJoyaADLPUYS24ZbaU0DkBDWaNw40OlRxI7gzUVcnaiiNf2TKywKJOirW1LWk9VithL6M4ePDSUnjFP3YSJmtyOWCeotxGWDV03ePn6p5BdiiwJeDEpT2G8kgdrOqK5qjkQXeaaHzkS6wtGaSQYPzrtlRyHipjjCAjDjzXbGmujF7Mo8hvrtttsRTzpjTfxeDbFY27xBx3aQ55o/aWFy9Qsx0c6b6752UkFXRYm5TVzrnb9Dlu5cLN3aO2cKN3SSyCuuqqe+uJX+Co+7LjqIR9ieIYuVtOuBkmG8a99xIjHSE3jLI4Plc+tr5xk4LGHwlyTTftJDNBwYuQiYVdumSkbIWRdB2zxBk5UTil9WLI71p7uThcbWfd8s5N4r62NvOaJNIY/wA+c1W3pV/VjpuZO06oXJ29Wxw3iOXyjptB2TfMg3ax+TRrcjt/FYlcoa9DvoY/QjjqK968e3dy5JnuAbuw4rurApmllZN/XVrxl03k1WWGMdM/0kGrmIToSDLuP65Zu7fC0SInC+iBFfGwQlknG30uh8dPS2U/eS0QEYiwUpI5GdK8I8FMxgUEEYrky5Yi7Vq/VJqwGj2rh48cKbapoN0VFd8411zn0xOMSdwVryRBJZ2z0K7n9gyFctLi9jW5E6nooiEi80kLt9V8KlMVgICFQiNy0DCXcZES0fqk/c/59tImjcwRY6DdUq8eEuxJZ9JefqV52tRjsH6EqCVn4B9QYcrqlq5iUr5ekrKNFIKcbNf3WbRDqixWUYkDUG7bOI7K6Sa3pFUXWzwTnOJB/bmQi6/+dnRljKuk9pijWMtpOohpV+yaRtG2+tm7LliKSx4k5b7bqlow1to0gzc5daD2EdOy9YoydobJuB4WjNpxCnsqewVnMIs7mw0boZIw5tIBK8qYCFNmuqZV7Hkne5dqNU2fMtdHy7NNrts8a41Vzlwl+ur3lywPoMc6lmIO9Ie5G0ynkP8AvPtIxF2hlhn/AAE45jH+WC0byk0QrrBRwk2VkH/BZvpb/LJnkWtIs0IH3fx3Oi7Wp9vAOuvjJxdzc1WRW5bf2Z0XeU0F7bbmozREU5+l1CpurJKKKrPSJDqG1Z+1Y77Gnb8zOD8MlcqWUfrQssSZXv8AggtKbAM0F2fUsMIlyL+oO2EJ3GgA0q+dPG9e9O1TBXVkNmMU/lfu6jI5dVKxKyTZ6PoOmocVNqcRkAQRues+ck3M6fVh/R5FR9YPy5FjlNtZE6+m1ZvwqaOc7Odmce5t6nkE130R0xlXdtpXo2WJP1dcYTbtV91F9sJfnjazzwPPUpH6xAKnjaqnDX2ZI7qlySm5AF9LJKMCPt93i22zwONT+uIbQeKdZzlcex0ECtGjTdFDUaxwnhqlm9MV2EG2rAn7bjf6ywhdpI2C6cuuH6DSCxauj+2m+c/2c6grr6hWs3lccb4/PYgEVreaavk8/tf4+/znCWQtSmQg4fiErBRiVvoHJTcbOCI9OBgsKbJQw4SFumYmVjwslYlI4XfR1+s3LtBZ8YRCv12abQqxdsVV26nL585W31p7Gid6xW2/sdZNOdQ8pX7POfuiKjC8ScNnRIQwDIKkIDOYmTK1CMKl6+tKBOhEmih50PboEV9DrVio7bjMOleqf3Pt3Gsl84Ppjzv9K2SqYPmvsJOJ8K/QFbO+rUDGZOs4XU5G6Vkqmc6tmqcVO5e1JM5cYcNxscghQU1Txu7Ia5yGyxlCfSauOl+aYSd+vNpXgIkUtJ2DatbkeOOLYIOd0NWCLFzNNiMri9V4kAvEumJ+u6uZ6AXwqTaoTovKAD1P/DCa7W770SOW0F7C2nPVJlFXR50EsEzWjd0nuk4Bc1wvJdOk2X7SmqCyKs60kErvYk2IM2p0KQt9SFGf3sQ0fhGR04ay99Cpgxr0uFj8+eRaQNYOekgpwdjoSXuBLtGNFzwNo+GOzIUaa3ZPSgpqSHuCLFFdoi+aKLarphlPuTHujpzvqmPudwz8+q4+gt+R/n3sqJSOxpmlvUPCReaVwo5OXVuwiVVSU3x2R0bxUEzgYEWL3scbZMrXZYeKm5UYJOMEE+n2kRVuA6grUPfkriU6usZC4+ytKYwOPu4rDZLOG45BOQmI3Hnzp46FCXpHVZZq1VV0zjTb9ejRgnvqxbcfv2BgEPtn8Tt8fa9nCJB7EpLQRBgcbBZTJoaT3QQkPSj1PRrJ4Yaj8nDK4dNUNtlxJlg430xu3UV2brLJKBPz8Rj0b2d88OHYx1Xyx2fb8KnEdl9P0eWipqs+RJpApzuXRmzyQ2tKmcq5mKStpZkh/gjW79vCZfDqtZtxrfIKsg7hZ+4evp5bHZ/KnwxkvZNY96dBOehYbGaBt/8AziT13xsunIEbtllKwA7WpeOxnlaKxpvA4ylNT0liDoEJD2EjIXCesnncpj7dsARgH+Kp4o5yoP5Z7TusAU+GynPRlQCNV5Jft+2OPyMJD5ts6xiN2RaEtjmVt9mqP7JD+oy+bY131aukdVVsKTo+52+in4Y+2s6b674xzrw5jOdNsbYxnF2cz/njOcZzjGcfnj88f9f9+C7Dnrqyk7BjFRQN/wBCU7I+gDdXQM1J66aWXAVbNWPP4aNLHXDyvxpfQ8zXy5y+dum6YRuk110X/JFFFHOumyi3TvNYCwdKmO9DUaFtRU2FjKdZlrZgQ6wVJHJMMcx2P6Qx4fRke5s9goMyFFajcvymCLH+C3X/AJbf9zmB+vIOho3+GkpR9VIyCgrAYwzg4tx67qdmIYyvS/ic2p5V+QpZxD0tCO9gk4tmw3BV3F98nXzXU+uuqs8xvtn3PslQ911LzR86PsyOgg1/2984v+D7A6wEMRI5s/s+uJhGYhH+hgB1Riyxu8VjUoVdaNSGEsYiMPkM/NslWf8AAb7oh1A73jSiVmo0opcFWp3K4Tyq3qXewInpZq6WAa0myqjA9i+JUqniNt15DnfQVtrgGgsWzn+Anu41g79dOpbW5U4gs6Rc5iCEm6stBJSmuWouGYsCp0ncMtCHCep0QJKJLjCbisoBHZ1bq7Am1djXjKAOWj5o6br7t1cX+eI6JdQyq1PqWQhjdq56jxGoxy6/k8Wai5pGON6qaGwtam1MPW2SoYne8nkdkXU8V1WbPnldTeroscT23hjZJLStjSHo7pr6Wk5by7HeebGr35wQcnUy+l1WlO4MFx1n0jGI5KrBMRpat6ttTYycqPnreFQndYp/T6hlr7sEJqm5fpPtWQbF+FP0Fe/SX5t0hfEvNNjV0RlIhTnQSyKDFmstbtd6M2hI+8YDEGg1g5n8XfRWylGI1kyGsMzH+AwZtmzXRBPe95wmO2J9DuLwUwbkCoOL8ydsWyGDJnj4oUjYsCvD50s4bKng8OTHtC5COtJVJWozQwi/aItjxZDLbZJ841U5lPki7sf5Nfdjqv5v3oLgUArL6Dx9z07z5Hq6k52S1XHZw3dy+VjolAzssi0GKaiEo23tSuHO5KOjST4vV0JEapkv3GD1fqWnucZ+kfJ+cZxnGeH/AKDZxnH+8Zxm+fmV+WcZ/wDOM+CgnqHpXv6uPxBPHnzDhv0Q6EEc4dSUHKrvlhHan+ByNmwo2iP6zMsIvXknKcZPRCEPGZo+Hjmqc2jE5lKzBydySlT8i9aEB9yf1cK39UPBF13nQfU1rUpZvNtNTWxGJyPQnnCZM7ULRqOJKtWtoBLYoqfjE2KzpkqQV1rBCs18PSDvXVb+t0ZDWlIf08CuKE/E7/HztC1lUYbzdJaRlXNutrHN9B8MD26uG6wGi4rIJC530GA3ZpzesEyK/tXDLR8isVcNd1kApRRndz9hpEFfcFXdQ7ImwdW11lGdubqHgSLtFSUWHZFsvh8RGso2F032flGccal15hMCLdHI6LwwIbkx94MCjHj9AP5uvWPaVE8lEAtF2dZ3SVlDohbr6X2vaUdp6OyzcdiLEyoNzgnzxFacxD5GDKZaDa42rDm23Hxxw3RCToMNRfO7RBY32xHZ7Y3yV6olHSQAgDu2tOcesLVFbBN067VhlkQGubgzAZVENa1uCyU9BQkduzfw12SsIsXKiVBJyYAo1LFiEZBW5ehB9Nf+259Bv/SDq/8A+DT7wTf8888D2NTOHRaxIfK6/nIEZKoVOY2ch8wjBpto9DyOLyUY6CnwRVmpjKboaXFPXbB823x+hds4VT2/1tn2S+eDDq8r6FVPAoXV1bxoXDa+rqKgIRCIkDb/AMUPGonFxbULHwQxv+rbKTIWLZNWbfXffdT9pHXKim++dt9sx888D0PepadlUhklGdG1OJweufmCVSYyHiWH7AQpatTWTH9YndNOJlyqjcYOJyIW2jU+gypR8JCL23VlbM5OdBxNyfJtpheeCE57578VWD1nCu/ZVzzEzXV8Qig+PRS2Dusj1MBhrVu40EO14c5LaQ7aYgWj9yPES8nFlptH2m2o0ebZt2bVBvL+Rx0FMI8eiUoEsD8ZlAUpHZECKN03Yw0CNsVxhcSRaK42SdMCI904Zu26muU1m6yie+M67Zx72fPBo3njmihOTa0G09zjVkTqGthLhZ20i0RZbtmu71xoiis/fu3SzomWIbN2zVnh+VfPXmrFmyY6Las2bVBLeXnngeeeeDVUCo6oavmVuWFXteRiITa+ZUIm1wyUIO0aFbBlQGLioaHMyBfXOf5DhhHQzJkjolqi3yvsQJqI7li5Z8+gj9Dueb/6ZnvF8XhNdVrMqBprqGA9LXs3mtjqxoxM8VcDnekCgIaK7wGVCTI4fYhiFWKacmyg5u7TiaAhq32XV3W9aH54NewGpavqzBzFbV7DIJtJ3rUjJFYnHBQJc+9YM0xo1cy4HNUFyewoUi3ECNXqi2ggO2aiRurUc1btUtheeeCHLup5RbPXsWuecBlgVbcuxyYx2ixb5Zoq8nds2wGFiLEuZZghsu4DBYLAUX9RVzs9WZFTzieXUTfhNY1ivZAemN554Hnnnge1bdVJVN0ZWMrpe84BHLQqqcN2DSWwWWscEY+eQFlx58bo+aZ20zvswNChpRmppvoq3fMWzlLfRRLXbG0vPB8JJJIJJooppooop6JJJJaappJJJ640TTTT0xjTRPTTGNdNNcY111xjXXGMYxj33554HoTSP5pfOOYyCQS2XcAcTSmVSw2Wkspk0j5Uoo5IJLIzz9wVOSCQGScDdEjJsyTduiJYqRcuX5F+5cPHi6zhZRTabPngijY3BvDdwvYuRtvjLlG0iEHhIOtIW/sbnaoZu9iFcxhV+vG4BF3Umh5NePwmPLlSiwOKiVGgISqSfqMGDfd44yplEX5F5Qg9XlaQhfMPPMQpc7KB03OVDF6WraP1eZmgcnHTQmXlYAJjTSKEZQLMw+JFhx94JWLMicXjr9s7SdBBirWQ3ngjsK5C5OBWZrdATmLnwRcCZUkeStQZTVdsbEQOmtldzRxvNG0cSkTcya2XVyZKokU35X9WP7Bw4/Rp+mBl60F9Hb5s3sqgZhP6QccD9QRqr4DAjo1LYNcFFVASiBCMdYxJIFiFkMWDYtwoO3geAyI/LE45XLY7mcoqrPY6jWR23zzwYewr6CjYAzqppEY7pWjCHt6+awNYSydRPWCtQukcRiKoJ2iuOcx3UAnqG3EuUFmSw3GWayKiG22mdNUvxhx5zfIyMw535P5poWXGAakYLyml6Jq6rZGUjSz5gUVjxE3B4sCJvgapMWMIqCXLpVhu+HMHezfLhm3UTkr54IYTD5v/ADwsKVSSdT7gvjCcTaZGSMjl8xmHLlHyWVSqQmHSj4sekkhNQZ6XOGSj1ZV2RKE3jp8+dKqOHK6qu+2+cLtEQQrDtLi6TxOnpqVqUDzX1Vzzu4qeEIkYrVZayLX4IIVs0kI0SoybQ+CpRmoZvvoRbM8igg6MKIfsop4bJb2B+eDCrDraurdiBevrXgMKs6BSBJNA9CLDioKaRA2gkroukiXjUkYEgxJJNdNNZNN6yW00VT0U11xvrrtjS1L8T8dc5SF1LqB5W54peWvR6whzKqvpyv4RJtwjhRNVQDg/HQA8ulH8KIpbpAUnmgdDKen7DJP9OPyk954HoH/TbeUkuD+qq6gta2Ras6uzn68qThMWrGLqykrmX2RTk9BRt2bS0ctUw0YyYUZjiUgdK/xBzkiw1Xx+lxjbWeHngeeeeB5554HnnngeeeeB5554HnnngeeeeB5554HnnngeeeeB5554HnnngeeeeB5554HnnngeeeeB5554HnnngeeeeB5554Hnnng//9k=;" vertex="1" parent="MCF449-vFfueuInCG7i1-14">
          <mxGeometry x="10.800000000000011" y="60" width="188.4" height="30" as="geometry" />
        </mxCell>
        <mxCell id="MCF449-vFfueuInCG7i1-19" value="" style="group" vertex="1" connectable="0" parent="1">
          <mxGeometry x="215" y="740" width="210" height="100" as="geometry" />
        </mxCell>
        <mxCell id="MCF449-vFfueuInCG7i1-16" value="&lt;font face=&quot;Times New Roman&quot;&gt;&lt;span style=&quot;font-size: 14px;&quot;&gt;&lt;b&gt;CORRECT VELOCITY&lt;/b&gt;&lt;/span&gt;&lt;/font&gt;&lt;br&gt;&lt;div&gt;&lt;font face=&quot;Times New Roman&quot;&gt;&lt;span style=&quot;font-size: 14px;&quot;&gt;Update velocity from pressure&lt;/span&gt;&lt;/font&gt;&lt;/div&gt;&lt;div&gt;&lt;font face=&quot;Times New Roman&quot;&gt;&lt;span style=&quot;font-size: 14px;&quot;&gt;&lt;b&gt;&lt;br&gt;&lt;/b&gt;&lt;/span&gt;&lt;/font&gt;&lt;/div&gt;&lt;div&gt;&lt;font face=&quot;Times New Roman&quot;&gt;&lt;span style=&quot;font-size: 14px;&quot;&gt;&lt;b&gt;&lt;br&gt;&lt;/b&gt;&lt;/span&gt;&lt;/font&gt;&lt;/div&gt;" style="rounded=0;whiteSpace=wrap;html=1;arcSize=0;" vertex="1" parent="MCF449-vFfueuInCG7i1-19">
          <mxGeometry width="210" height="100" as="geometry" />
        </mxCell>
        <mxCell id="MCF449-vFfueuInCG7i1-18" value="" style="shape=image;imageAspect=0;aspect=fixed;verticalLabelPosition=bottom;verticalAlign=top;rounded=0;strokeColor=default;align=center;arcSize=0;fontFamily=Helvetica;fontSize=12;fontColor=default;fillColor=default;image=data:image/png,/9j/4AAQSkZJRgABAQAAAQABAAD/2wBDAAEBAQEBAQEBAQEBAQEBAQEBAQEBAQEBAQEBAQEBAQEBAQEBAQEBAQEBAQEBAQEBAQEBAQEBAQEBAQEBAQEBAQH/2wBDAQEBAQEBAQEBAQEBAQEBAQEBAQEBAQEBAQEBAQEBAQEBAQEBAQEBAQEBAQEBAQEBAQEBAQEBAQEBAQEBAQEBAQH/wAARCAA4APIDASIAAhEBAxEB/8QAHQABAAICAwEBAAAAAAAAAAAAAAgJBAcFBgoBA//EADIQAAEEAwEAAQQCAAQEBwAAAAUDBAYHAAIIAQkRExQVEhYKFzm3GCExeCMyQVh3mdn/xAAUAQEAAAAAAAAAAAAAAAAAAAAA/8QAFBEBAAAAAAAAAAAAAAAAAAAAAP/aAAwDAQACEQMRAD8A9/GMYwGMYwGMYwGMYwGYZF7oNHviKiDx0mwZunu7Yc0XfkHGjVDdfZBixa6KOXrxbVP1Ns0bp7ruV9tEUtNlN9dfczGBCbnTt2L9G9EdRc6CqstSuZPyvHufT8re2cwjoVSSo9ECLGkMX2BAg8hPlhrUeEgOjl9rLEwB7x2a8ZOI8x9H7Lu5s5TLxv8A6yvzU/8Ax38W/wDtD0HlzWAxjGAxjGAxjGAxjGAxjGAxjGAxjGAxjGAxjGAxjGBry1BlsF4OWYUjNa8r2yVlRmwKWWpWEkuODjkUibRUwmWr2JW7RR40q/DaP2A1ZnZoDQSTctCzpAy1ZLBX9AnwNfJt3R8qYm77UvB9ybA65oa6T9Klq9qmgrgHzWbPG0TYmRMrH2fL+r5eCiDVsQJofsY45qeWrEGbRVu2kQtZ1o7a+j7PH1/hERD+AVt8nVNS5H0JZla93nWU3h73zZubj6u0bTjqO5Bgtqm6boujERkjJqqsinquqIe6p/X1HfzULq7itX5AY98gVH82wG3ePBlL3vV/Qt1jXEv5PumU2hCYzzjKeZowbgz2SBu2YXE5ccnKvQnrwVN0YPE2ESTj/iLuDSvZx9z3HvTtfoyuOxwlJxOjnUnrDePSldxNEANrqstlE3XOejo+UDDqcMTaZo10nY5nXdzzozt2DvVZcKZ23LKb1gs0Mgu5WQ5Rkny88kCQ2+r55U/A3csin+iO2qnkaHXLePCwOsv2f2/d9ma8ze1FZvoBJ1qj+zQg8mVZbL+B32qNlG7Noo6QfKNW271qi5bNXm6CWzps3e7tlHiCDjbX1ZFF3uzZ7uUk99dF92jbZXXf1BL3QKqOxu1Oi6JvSvq/rKj3U8h5SSbNiknQB2ouyXScUla0yegyQsHT8rlM5UjLuKsJ6m35ZZXdNFh4J9DbAi1aemAZ0/a4lt7umnv759Pd9NNvfP476fT3bXz33z+Kmuimv099+n8VNNN9f+m+uu3nvnn5LM2jlZo4cNWy67BbdywWWQSVWZOFWy7JRdopvrtu2WUZunLTdVHbTfds4XQ229SWU02yMBjKpuirEEhLkmYt12f8m9WLtVg/m8DoThNpblSgPFY8JX10iFiKfGffG8kRf6q+FCq21sS78A69KCfFhfjDwEL0rrbIL+Xn0+RD5lfffr59PPfjLY/T336/9Pfr8OXnn09/9cC8PMZ6gq6Zu2yD1yNXcNl0ESLLRmo8YKrJbppvWmhFo/H7uWu+3i6Gj5i9Z7Kp6eOWjhD3dHf6z2/k0a7fdcL/AMm6G33niH4rtb6pa+/ddNvx2f47hT/zrofiNftK+7J/jofx+1rEi0pr30InZ0fSnNPIFgVk3/Wf1mXWl3DdFPzsv90OPXM/va6ifx7XjH47+BIFSowZ+vtKUftw7IeddfpHpNzHRAawpz490KY6bubq0V1x1RLLD6GTp9nc4SYtOUlITORFFCDoCugqouLcsxU1GmQwRJz7N85hchjRcv8As1HJAmu8bMHDSw7IAf5jfKb/AOzfgD/7LOiv/wAnckBRcj6nkH9p/wCJem+f6k/E/Sf0r/IvpaxeiP7B+R+3/sn9p/v/ACdy/wD0/wDVfZA/pP1P94/sH7Iv+f8A1n9Iz/sAamqy7ztx3B0NN2Jp8L505jkMoo0eODB9yz21bfhg0UYu2cL+jGROREQFUknG9Lw+IgW7Z2QsUBb740Ok26FbqA4GdOd+d11C74QsoHSVJwCp+w+3efuWdaMulnY7vqQfCrpISV6tPTZCNyEBBKpnISDRcjKjNZk49Zm0RSSVZHpE4OtH0eaSM+HNVR5wNAzD3T3U9Ibu7Skcw2U9/m6UnJztfoUlNdn623vqq79OTuCjd0svt6v6oh7qp/H3T+GsBu8q66l60+YLkfn2oeiqur+Kcm1JK++t0j3NpGyUazmJPx3zpVPk2dbXxFm9lSGdlJFb8hiI5ozrFvBREH0fLozZzus5cBan3z1NL+X60q1KqY3HZle/RPRlMcx0dGZdsS9iqsxtGSe7yOUyhAI9HGnUZrSrANhWacaDH7Bw+ZxDYd+yF6PfSDbGuvyWynurkWtGdnWPB4J7QHXF2SONQKQox9hPJbUNw8IAIUwm/wDIe9XMxdoHtmfMHoJNZki/RkDj76380m+6VXcPh/Tk4+cXnmneouioR0OH4z4qtjsWMuq/5/8AKHCAbP6DmmnL8SYyMPvbNt+yAyyr8RbZYGSUJiFA6BZbVAav6R8fJWpz7/Uj5Q/7IPkG/wB+fjKwKY7G+SX5OIj80tV/EeLn3CKw+3KYO3UNvkhx10Cs9izFhF7WlbOJvq2bfIGzQkrvxvWqYxzJW84jSC6xjcilG2qbHUc6td+TK5es+auX5F0DzXMOd2RWqhjZ/PIveNIWTY46ffvZHD4yK8iRWBdGU86rn0OuUMkiGphjZnh1FcaPb7gNxzkiVoY6aEPoP/jDvj/mMqR9CxazuLpsChEgfebNxB2QjK26nEPo60Iq66M1Dzd7uOTUE6LbPPPDse+qXmxsdq4vU+X9yip8f9yRNJTVWSWfIqTqeBhU9tdiUon9jXpW8WicbDM/PfyCBEgTIJ7+tmaS66TBu+IbpfisnKiYYnXXQHWnKHKWskds4Lfd5IRC3CEtl1P1POqjhoX+vBDkljUvARSezG+YDFGMUHaBh0iFXj0XEh0+dtib2CnVJOQB1Q84TrGxbbsH4ueh+gdDdk8yXNVNG9NXICZVsRncPMRyZU7CLY9isbkW9q1jBJFKo82fCRj40orBhcUmr8a0kENImoS7BGitp7xm0INXDF+1bPmTxFRs7ZvEEnLV03W09TWQcN1td0V0VdNttFEldNtN9PfddtffPffMhR8mv+m58g3/AGQdX/7DT7Am/jGRNm0x7pYSs6zrnnPk2VQdu+3TjUim3aVwQCVlhvmmnqbs7DAXBFliI6+2U9U13HsJ5KG+mmum+pNTZTZNMJZZpXo8heoihbeMcxjoGa6DD1/Ji9OgLPHmSUBkk+FDFyEfjMobx+TQ8wkNkj1voC2IMpGO2ErEESqvrtBmqxc62hUx7qfysEzsXnLkyKwdw/TTk0ihXaVwz6ViBnuu/qrwFDTvA9aiJE/02801THEJ3F26uu2+2xRL3TzTeWeB5ueGOrfm+735irfp2rZ78RkfCTlAyPOweWUV2g1mlbzuJGyEXnFezMeh0Tv4wkcVkgp+Pcp7+J+PGnjIs2T/AASLTfeYtQTv5fRPWFP1F0dLvjclFZSONz2f2kjz7UXTwWxYvA4sPQDAn7I3Yd6HYmJJSuyZBFwgRqXBEljIIbYZUQ0dbQsn4hG6vCg74vvl3tKn5A/ZxLjX5YWMw6aqYoScoi4fVncdXAW7rpGIrvHG6I0IzvCvWo62PCJZ4jqQlQZSPAWf0Rd7eWycsjCMqGzHpaUsHg+U9HvhEjj4sq2WaFodQkcbvmlCQZ2zdaJvxLzeNFi1sS6OENdnUZtS3rIC6qqM2jPVMJXZX38g/TFyc012CO03W7uxSptV+kU1HtCiL+NtmBqHN0C6EhNxpWkh6br9w5CriLasqrXZnwlo9rx7LpCAdRIjC6kq5a2D8pHY4GXTc5Kae5h5m55i94R82Wcja2uLqK8Jbc/QhmbWFEdyLsMXH1RTh+DgIdFZQ6LgojDZXGRP2yLSGQxaN7y+GaYTm4eBIvPrE9Ml4RYFxdJSfnxnN9XZE225VI9A2C75vHv1jf3npAOxrLSO+wR089U89r/WIeNN9maTTfAlsHkV23hzEymcW3aUvfBFoUPR0MVAWAlGQ0tjEmKJD4LOAlsV5WU/Lwo6mL0ic0KqwOGlygUkRmFaOQy6kOkzfvHM18R/puh60vONjH0faT0Bs6LRQqu2cmYNMgpF9Gp/Xp5wy23ZLSGvZ0FkUJPqMt1GexkC+9aqKIfb323rlYfxY+OG9e9gi0t/PY4I+TX5CW0RQT880bsxz/pKYnpE0apaf+EgijYhibe+pI+a6eL7Lb7a6q7qeeBZ5jGMBkFbO+NzkW0LlL9GKQWYVb0DIwqMdld1c5XTdXMtizgK39afjj7FPUHYFd+2Wi2SYMW7PawUJOqwbMWCLBRtqPY/jzqxgaCojmCkebGsq0qSIvRpmek2hmwZ5MJnOrWtexCY1FdsJd2HcFryabWjOtwjV06ZgE5XLy6EfZOnLIKkwarqo779xjAYxjAYxjAYxmlLL6PoanW9hL2bbUEhqtU1uPt6whheQMUz8YrUyUkIEFMHscSVVPKiJFIYpIY3G1GY5yrIZIKcx4Kk+M/bYqBAL5nOpLZ5t4cvzfmwzoE6SJUJfViwuR+Nk329ZV7SNePZvatvLtFdFdNf0LTeOV7EXyiDpsyty06xVJMnIb9p9uZXEkrOTzjHkWcSc2RkslmfMNByuQyMw8VIF5AckVVRMuWNlH6+2674iVfvHD988W33VcuXCqym22++3vtHfUiPyN21zX8jk5OcCxB206t5TuSsoUZmfWAmJWLSfNjuoJwPgsOcUw0peVpoWMk6lUitOzI+lYWpAxZEi9gKsj2j0AhLsbZn8M9iMbT+J747JaweaP8AVPkCi4gQdab6qfcPVvAw9cyXVTbX33z76MhihRFzp/y9TcJq6ba6ba+6+B37mSBGeabhv2iFw5Pap7YtWxuqaElLQeupHBLy4TiUx6Cp00QQ+43EywRdpyZW7GEH+oxvKILamw+KIlV6rnrgduyuOZKxrC9eiOjwWh8jbHTatXoWIdPlvCDdjGqbiKsRr6EQ8ck1aNY9Ew3hGTyVVnro7IE5XMZIWJlHaa45oMkLjArbsz4xqps7rSf9burr6bhp236eg9F3HVVdWPH4hV9nV5XxoqbACjL1lB1LejO6i5ok1LLVta8G2Kj3j9i5+rcsaTJcrd0zilZ/IXxUUljpWPx+Scv9r1FHSOoYu6ELWBN7v+OZxCodu7FD3bMWRPsotIlxCZFRk2WagSiui2qTBxsnYfjAjN05xvzL2THI1GOkqjj9ltoPIW0ugBxZ2di89riVtHDJ0hJq0s2Elo1Y1cyDxccw3UMwiUgSK/jJrou5VTQT016VXHA3ONczyNWgo0t617Bgyj9evpR0h0j0P046rh0SaKjXZSuR9/WhYoSBSJwIXchXUvigsTLyAZ2+GEzz1o/epuJnYwGV6fK5OIzD/jr7LFH3zhuVs/mLoiqIALYiTBolKrFmlGWK2isSFMAg8i7VKHHLZZux13RTQUceaI7LaKqpa72F4wGMYwGMYwIp9ccWc89wwyAwHo2FeTSN1pcNf3hE22jxRguzmteEVXLJJZwlptu4ASMQ+NRCYBtv4onYnIDIvZRuq4QeNpNGSG4gQVKpjSRlQYNfEEw4ZJBcuV3ZNVXOg0Ug6cs2qxJ9sl41YpOHjRBR0qlos5QT92V05LGBRtwTxm5swB25P+wqMuGr7G6366uKx7EhElsJwDFzyhFyCMGoCsZdrUdnlo9OYsBpWGxZpKI4Y21Y7uJRL4cRbEYxIZMIKXdChQsCLGgwY1gGChmDMUHDimbccLFCxzdNmPGjR7NNFoxYMWiKLVmzaopN2rdJNBBPRLTXXzPxgauuWxH9W11IZcDhx6xZWgiiMhFexhDZU3OJsYX0GxeNN3G2vrMKxIF3Db9/KzKjSNwqOJF5hKSAyNgipBrrTjnn9zzHznX1SGTTKUTZptLJza0uHNlmY+Z3Xbs2kdtXVMBzR1so8aC5Nak2lxkOyerLux4l4xYLrrbtfVNpOYwGMYwGMYwGMYwGMYwGMYwGQvt347+LL66bp/se4efYZYHSNDCm4aqrKPqnlnEaYjzBCQg/vxtEwhDpG8isgLFD8NJSmPGyMNOv3JmLuhJPfx1qxgTMWRScJKt3CSa6C6e6KyK2mqqSySuvuiiSqe/m2iiamm22m+m+vuu+vvuu3nvnvvmR75q5L5t47gi1Z8xU1CaWgzgm7MOQELG7M0HZF66dPFl3bpys6IO9U3D13uzbuHarYfq5XRYItkVNk/WMCRGMYwGMYwGMYwGMYwGMYwGMYwGMYwGMYwGMYwGMYwP/2Q==;" vertex="1" parent="MCF449-vFfueuInCG7i1-19">
          <mxGeometry x="40.68000000000001" y="59" width="129.64" height="30" as="geometry" />
        </mxCell>
        <mxCell id="MCF449-vFfueuInCG7i1-40" style="edgeStyle=none;curved=1;rounded=0;orthogonalLoop=1;jettySize=auto;html=1;exitX=0.5;exitY=1;exitDx=0;exitDy=0;entryX=0.5;entryY=0;entryDx=0;entryDy=0;fontFamily=Helvetica;fontSize=12;fontColor=default;startSize=8;endSize=8;" edge="1" parent="1" source="MCF449-vFfueuInCG7i1-22" target="MCF449-vFfueuInCG7i1-16">
          <mxGeometry relative="1" as="geometry" />
        </mxCell>
        <mxCell id="MCF449-vFfueuInCG7i1-22" value="Final&amp;nbsp;&lt;div&gt;NonOrthogonal&lt;div&gt;Correction&lt;/div&gt;&lt;/div&gt;" style="rhombus;whiteSpace=wrap;html=1;rounded=0;strokeColor=#666666;align=center;verticalAlign=middle;arcSize=0;fontFamily=Helvetica;fontSize=12;fontColor=#333333;fillColor=#f5f5f5;" vertex="1" parent="1">
          <mxGeometry x="255" y="610" width="130" height="100" as="geometry" />
        </mxCell>
        <mxCell id="MCF449-vFfueuInCG7i1-23" value="" style="endArrow=classic;html=1;rounded=0;fontFamily=Helvetica;fontSize=12;fontColor=default;startSize=8;endSize=8;curved=1;entryX=0.5;entryY=0;entryDx=0;entryDy=0;exitX=0.5;exitY=1;exitDx=0;exitDy=0;" edge="1" parent="1" source="MCF449-vFfueuInCG7i1-7" target="MCF449-vFfueuInCG7i1-11">
          <mxGeometry width="50" height="50" relative="1" as="geometry">
            <mxPoint x="320" y="520" as="sourcePoint" />
            <mxPoint x="330" y="500" as="targetPoint" />
            <Array as="points" />
          </mxGeometry>
        </mxCell>
        <mxCell id="MCF449-vFfueuInCG7i1-33" value="" style="endArrow=classic;html=1;rounded=0;fontFamily=Helvetica;fontSize=12;fontColor=default;startSize=8;endSize=8;curved=1;entryX=0.5;entryY=0;entryDx=0;entryDy=0;exitX=0.5;exitY=1;exitDx=0;exitDy=0;" edge="1" parent="1" source="MCF449-vFfueuInCG7i1-11" target="MCF449-vFfueuInCG7i1-22">
          <mxGeometry width="50" height="50" relative="1" as="geometry">
            <mxPoint x="320" y="660" as="sourcePoint" />
            <mxPoint x="370" y="630" as="targetPoint" />
          </mxGeometry>
        </mxCell>
        <mxCell id="MCF449-vFfueuInCG7i1-36" value="" style="endArrow=classic;html=1;rounded=0;fontFamily=Helvetica;fontSize=12;fontColor=default;startSize=8;endSize=8;exitX=1;exitY=0.5;exitDx=0;exitDy=0;edgeStyle=orthogonalEdgeStyle;endFill=1;entryX=1;entryY=0.5;entryDx=0;entryDy=0;" edge="1" parent="1" source="MCF449-vFfueuInCG7i1-22" target="MCF449-vFfueuInCG7i1-11">
          <mxGeometry width="50" height="50" relative="1" as="geometry">
            <mxPoint x="320" y="680" as="sourcePoint" />
            <mxPoint x="450" y="530" as="targetPoint" />
            <Array as="points">
              <mxPoint x="480" y="660" />
              <mxPoint x="480" y="535" />
            </Array>
          </mxGeometry>
        </mxCell>
        <mxCell id="MCF449-vFfueuInCG7i1-44" value="NO" style="edgeLabel;html=1;align=center;verticalAlign=middle;resizable=0;points=[];fontSize=12;rounded=0;strokeColor=default;arcSize=0;fontFamily=Helvetica;fontColor=default;fillColor=default;" vertex="1" connectable="0" parent="MCF449-vFfueuInCG7i1-36">
          <mxGeometry x="0.0633" y="1" relative="1" as="geometry">
            <mxPoint as="offset" />
          </mxGeometry>
        </mxCell>
        <mxCell id="MCF449-vFfueuInCG7i1-54" style="edgeStyle=none;curved=1;rounded=0;orthogonalLoop=1;jettySize=auto;html=1;exitX=0.5;exitY=1;exitDx=0;exitDy=0;fontFamily=Helvetica;fontSize=12;fontColor=default;startSize=8;endSize=8;entryX=0.5;entryY=0;entryDx=0;entryDy=0;" edge="1" parent="1" source="MCF449-vFfueuInCG7i1-51" target="MCF449-vFfueuInCG7i1-61">
          <mxGeometry relative="1" as="geometry">
            <mxPoint x="320" y="1060" as="targetPoint" />
          </mxGeometry>
        </mxCell>
        <mxCell id="MCF449-vFfueuInCG7i1-55" value="YES" style="edgeLabel;html=1;align=center;verticalAlign=middle;resizable=0;points=[];fontSize=12;rounded=0;strokeColor=default;arcSize=0;fontFamily=Helvetica;fontColor=default;fillColor=default;" vertex="1" connectable="0" parent="MCF449-vFfueuInCG7i1-54">
          <mxGeometry x="-0.1333" y="-1" relative="1" as="geometry">
            <mxPoint as="offset" />
          </mxGeometry>
        </mxCell>
        <mxCell id="MCF449-vFfueuInCG7i1-58" style="edgeStyle=orthogonalEdgeStyle;rounded=0;orthogonalLoop=1;jettySize=auto;html=1;exitX=0;exitY=0.5;exitDx=0;exitDy=0;entryX=0.5;entryY=1;entryDx=0;entryDy=0;fontFamily=Helvetica;fontSize=12;fontColor=default;startSize=8;endSize=8;" edge="1" parent="1" source="MCF449-vFfueuInCG7i1-51" target="MCF449-vFfueuInCG7i1-57">
          <mxGeometry relative="1" as="geometry" />
        </mxCell>
        <mxCell id="MCF449-vFfueuInCG7i1-59" value="NO" style="edgeLabel;html=1;align=center;verticalAlign=middle;resizable=0;points=[];fontSize=12;rounded=0;strokeColor=default;arcSize=0;fontFamily=Helvetica;fontColor=default;fillColor=default;" vertex="1" connectable="0" parent="MCF449-vFfueuInCG7i1-58">
          <mxGeometry x="-0.5529" y="2" relative="1" as="geometry">
            <mxPoint y="-2" as="offset" />
          </mxGeometry>
        </mxCell>
        <mxCell id="MCF449-vFfueuInCG7i1-51" value="&lt;div&gt;Finish&lt;/div&gt;PISO&lt;div&gt;Corrector&lt;/div&gt;" style="rhombus;whiteSpace=wrap;html=1;rounded=0;strokeColor=#666666;align=center;verticalAlign=middle;arcSize=0;fontFamily=Helvetica;fontSize=12;fontColor=#333333;fillColor=#f5f5f5;" vertex="1" parent="1">
          <mxGeometry x="265" y="870" width="110" height="80" as="geometry" />
        </mxCell>
        <mxCell id="MCF449-vFfueuInCG7i1-53" style="edgeStyle=none;curved=1;rounded=0;orthogonalLoop=1;jettySize=auto;html=1;exitX=0.5;exitY=1;exitDx=0;exitDy=0;entryX=0.5;entryY=0;entryDx=0;entryDy=0;fontFamily=Helvetica;fontSize=12;fontColor=default;startSize=8;endSize=8;" edge="1" parent="1" source="MCF449-vFfueuInCG7i1-16" target="MCF449-vFfueuInCG7i1-51">
          <mxGeometry relative="1" as="geometry" />
        </mxCell>
        <mxCell id="MCF449-vFfueuInCG7i1-60" style="edgeStyle=orthogonalEdgeStyle;rounded=0;orthogonalLoop=1;jettySize=auto;html=1;exitX=0.5;exitY=0;exitDx=0;exitDy=0;entryX=0;entryY=0.5;entryDx=0;entryDy=0;fontFamily=Helvetica;fontSize=12;fontColor=default;startSize=8;endSize=8;" edge="1" parent="1" source="MCF449-vFfueuInCG7i1-57" target="MCF449-vFfueuInCG7i1-7">
          <mxGeometry relative="1" as="geometry" />
        </mxCell>
        <mxCell id="MCF449-vFfueuInCG7i1-57" value="&lt;font style=&quot;font-size: 14px;&quot; face=&quot;Times New Roman&quot;&gt;Let&amp;nbsp;&lt;/font&gt;&lt;div&gt;&lt;span style=&quot;background-color: initial;&quot;&gt;&lt;font style=&quot;font-size: 14px;&quot; face=&quot;Times New Roman&quot;&gt;&lt;b&gt;U&lt;/b&gt;*=&lt;b&gt;U&lt;/b&gt;**,&lt;/font&gt;&lt;/span&gt;&lt;/div&gt;&lt;div&gt;&lt;span style=&quot;background-color: initial;&quot;&gt;&lt;font style=&quot;font-size: 14px;&quot; face=&quot;Times New Roman&quot;&gt;p=p*&lt;/font&gt;&lt;/span&gt;&lt;/div&gt;" style="rounded=1;whiteSpace=wrap;html=1;strokeColor=default;align=center;verticalAlign=middle;arcSize=27;fontFamily=Helvetica;fontSize=12;fontColor=default;fillColor=default;" vertex="1" parent="1">
          <mxGeometry x="50" y="580" width="90" height="60" as="geometry" />
        </mxCell>
        <mxCell id="MCF449-vFfueuInCG7i1-62" style="edgeStyle=orthogonalEdgeStyle;rounded=0;orthogonalLoop=1;jettySize=auto;html=1;exitX=1;exitY=0.5;exitDx=0;exitDy=0;fontFamily=Helvetica;fontSize=12;fontColor=default;startSize=8;endSize=8;" edge="1" parent="1" source="MCF449-vFfueuInCG7i1-61">
          <mxGeometry relative="1" as="geometry">
            <mxPoint x="380" y="185" as="targetPoint" />
            <Array as="points">
              <mxPoint x="590" y="1010" />
              <mxPoint x="590" y="185" />
            </Array>
          </mxGeometry>
        </mxCell>
        <mxCell id="MCF449-vFfueuInCG7i1-63" value="NO" style="edgeLabel;html=1;align=center;verticalAlign=middle;resizable=0;points=[];fontSize=12;rounded=0;strokeColor=default;arcSize=0;fontFamily=Helvetica;fontColor=default;fillColor=default;" vertex="1" connectable="0" parent="MCF449-vFfueuInCG7i1-62">
          <mxGeometry x="-0.8365" y="-1" relative="1" as="geometry">
            <mxPoint as="offset" />
          </mxGeometry>
        </mxCell>
        <mxCell id="MCF449-vFfueuInCG7i1-64" style="edgeStyle=none;curved=1;rounded=0;orthogonalLoop=1;jettySize=auto;html=1;exitX=0.5;exitY=1;exitDx=0;exitDy=0;fontFamily=Helvetica;fontSize=12;fontColor=default;startSize=8;endSize=8;entryX=0.5;entryY=0;entryDx=0;entryDy=0;" edge="1" parent="1" source="MCF449-vFfueuInCG7i1-61" target="MCF449-vFfueuInCG7i1-70">
          <mxGeometry relative="1" as="geometry">
            <mxPoint x="320" y="1080" as="targetPoint" />
          </mxGeometry>
        </mxCell>
        <mxCell id="MCF449-vFfueuInCG7i1-65" value="YES" style="edgeLabel;html=1;align=center;verticalAlign=middle;resizable=0;points=[];fontSize=12;rounded=0;strokeColor=default;arcSize=0;fontFamily=Helvetica;fontColor=default;fillColor=default;" vertex="1" connectable="0" parent="MCF449-vFfueuInCG7i1-64">
          <mxGeometry x="-0.2991" y="2" relative="1" as="geometry">
            <mxPoint as="offset" />
          </mxGeometry>
        </mxCell>
        <mxCell id="MCF449-vFfueuInCG7i1-61" value="&lt;font&gt;Finish Time&lt;/font&gt;" style="rhombus;whiteSpace=wrap;html=1;rounded=0;strokeColor=#666666;align=center;verticalAlign=middle;arcSize=0;fontFamily=Helvetica;fontSize=12;fontColor=#333333;fillColor=#f5f5f5;" vertex="1" parent="1">
          <mxGeometry x="264" y="980" width="113" height="60" as="geometry" />
        </mxCell>
        <mxCell id="MCF449-vFfueuInCG7i1-70" value="&lt;b&gt;&lt;font face=&quot;Times New Roman&quot; style=&quot;font-size: 14px;&quot;&gt;OUTPUT&lt;/font&gt;&lt;/b&gt;&lt;div&gt;&lt;font face=&quot;Times New Roman&quot; style=&quot;font-size: 14px;&quot;&gt;Save results&amp;nbsp;&lt;/font&gt;&lt;/div&gt;&lt;div&gt;&lt;font face=&quot;Times New Roman&quot; style=&quot;font-size: 14px;&quot;&gt;&lt;b&gt;U&lt;/b&gt;*, p*&lt;/font&gt;&lt;/div&gt;" style="rounded=1;whiteSpace=wrap;html=1;strokeColor=default;align=center;verticalAlign=middle;arcSize=27;fontFamily=Helvetica;fontSize=12;fontColor=default;fillColor=default;" vertex="1" parent="1">
          <mxGeometry x="260.5" y="1080" width="120" height="60" as="geometry" />
        </mxCell>
      </root>
    </mxGraphModel>
  </diagram>
</mxfile>
